<?xml version="1.0" encoding="UTF-8" standalone="no"?>
<!-- Created with Inkscape (http://www.inkscape.org/) -->

<svg
   xmlns:dc="http://purl.org/dc/elements/1.1/"
   xmlns:cc="http://creativecommons.org/ns#"
   xmlns:rdf="http://www.w3.org/1999/02/22-rdf-syntax-ns#"
   xmlns:svg="http://www.w3.org/2000/svg"
   xmlns="http://www.w3.org/2000/svg"
   xmlns:sodipodi="http://sodipodi.sourceforge.net/DTD/sodipodi-0.dtd"
   xmlns:inkscape="http://www.inkscape.org/namespaces/inkscape"
   width="210mm"
   height="297mm"
   viewBox="0 0 210 297"
   version="1.1"
   id="svg8"
   inkscape:export-filename="/home/doug-wray/Documents/Quiz/Web/img/15/Answer15.png"
   inkscape:export-xdpi="96.5"
   inkscape:export-ydpi="96.5"
   inkscape:version="0.92.4 (f8dce91, 2019-08-02)"
   sodipodi:docname="question16.svg">
  <defs
     id="defs2">
    <inkscape:perspective
       sodipodi:type="inkscape:persp3d"
       inkscape:vp_x="-1.0971948 : 170.12301 : 1"
       inkscape:vp_y="0 : 772.58967 : 0"
       inkscape:vp_z="163.0802 : 170.12301 : 1"
       inkscape:persp3d-origin="80.991505 : 131.87983 : 1"
       id="perspective6263" />
  </defs>
  <sodipodi:namedview
     id="base"
     pagecolor="#ffffff"
     bordercolor="#666666"
     borderopacity="1.0"
     inkscape:pageopacity="0.0"
     inkscape:pageshadow="2"
     inkscape:zoom="1"
     inkscape:cx="-118.20079"
     inkscape:cy="-286.96916"
     inkscape:document-units="px"
     inkscape:current-layer="layer1"
     showgrid="false"
     showborder="false"
     showguides="true"
     inkscape:guide-bbox="true"
     inkscape:snap-grids="false"
     inkscape:window-width="1920"
     inkscape:window-height="1052"
     inkscape:window-x="1366"
     inkscape:window-y="0"
     inkscape:window-maximized="1"
     inkscape:snap-to-guides="false"
     inkscape:snap-global="false"
     inkscape:snap-nodes="true"
     inkscape:snap-others="false">
    <sodipodi:guide
       position="-235.47917,-119.32708"
       orientation="1,0"
       id="guide1146"
       inkscape:locked="false" />
    <sodipodi:guide
       position="-222.24999,-91.016669"
       orientation="1,0"
       id="guide1150"
       inkscape:locked="false" />
    <sodipodi:guide
       position="-80.822303,-26.566592"
       orientation="0,1"
       id="guide6341"
       inkscape:locked="false" />
  </sodipodi:namedview>
  <metadata
     id="metadata5">
    <rdf:RDF>
      <cc:Work
         rdf:about="">
        <dc:format>image/svg+xml</dc:format>
        <dc:type
           rdf:resource="http://purl.org/dc/dcmitype/StillImage" />
        <dc:title></dc:title>
      </cc:Work>
    </rdf:RDF>
  </metadata>
  <g
     inkscape:label="Layer 1"
     inkscape:groupmode="layer"
     id="layer1">
    <flowRoot
       xml:space="preserve"
       id="flowRoot1228"
       style="font-style:normal;font-weight:normal;font-size:85.33333463px;line-height:1.25;font-family:sans-serif;letter-spacing:0px;word-spacing:0px;fill:#000080;fill-opacity:1;stroke:none;-inkscape-font-specification:'sans-serif, Normal';font-stretch:normal;font-variant:normal;text-anchor:middle;text-align:center;writing-mode:lr;font-variant-ligatures:normal;font-variant-caps:normal;font-variant-numeric:normal;font-feature-settings:normal;"
       transform="scale(0.26458333)"><flowRegion
         id="flowRegion1230"
         style="fill:#000080;fill-opacity:1;-inkscape-font-specification:'sans-serif, Normal';font-family:sans-serif;font-weight:normal;font-style:normal;font-stretch:normal;font-variant:normal;font-size:85.33333463px;text-anchor:middle;text-align:center;writing-mode:lr;font-variant-ligatures:normal;font-variant-caps:normal;font-variant-numeric:normal;font-feature-settings:normal;"><rect
           id="rect1232"
           width="98.994949"
           height="91.923882"
           x="408.70773"
           y="986.75519"
           style="fill:#000080;fill-opacity:1;-inkscape-font-specification:'sans-serif, Normal';font-family:sans-serif;font-weight:normal;font-style:normal;font-stretch:normal;font-variant:normal;font-size:85.33333463px;text-anchor:middle;text-align:center;writing-mode:lr;font-variant-ligatures:normal;font-variant-caps:normal;font-variant-numeric:normal;font-feature-settings:normal;" /></flowRegion><flowPara
         id="flowPara1234">?</flowPara></flowRoot>    <path
       inkscape:connector-curvature="0"
       id="path6232"
       d="m -147.36267,280.76441 a 5.6224099,6.5103895 84.79827 0 0 -9.13341,1.14677 5.6224099,6.5103895 84.79827 0 0 1.08228,7.8794 5.6224099,6.5103895 84.79827 0 0 9.13364,-1.1468 5.6224099,6.5103895 84.79827 0 0 -1.08251,-7.87937 z m -0.26246,0.29425 a 5.2557587,6.085831 84.79827 0 1 1.01182,7.36556 5.2557587,6.085831 84.79827 0 1 -8.53793,1.072 5.2557587,6.085831 84.79827 0 1 -1.01181,-7.36556 5.2557587,6.085831 84.79827 0 1 8.53792,-1.072 z"
       style="opacity:1;fill:#000080;fill-opacity:1;stroke:#000080;stroke-width:0.79374993;stroke-miterlimit:5;stroke-dasharray:none;stroke-opacity:1" />
    <path
       style="opacity:0.52300002;fill:none;fill-opacity:1;stroke:#000080;stroke-width:0.79374993;stroke-miterlimit:5;stroke-dasharray:none;stroke-opacity:1"
       d="m -151.41577,276.27248 -15.76153,9.02965 15.76153,9.03 15.76153,-9.03 z"
       id="path6350"
       inkscape:connector-curvature="0" />
    <path
       style="opacity:0.52300002;fill:none;fill-opacity:1;stroke:#000080;stroke-width:0.79374993;stroke-miterlimit:5;stroke-dasharray:none;stroke-opacity:1"
       d="m -135.65424,285.30213 -15.76153,9.03 v 18.05966 l 15.76153,-9.02966 z"
       id="path6352"
       inkscape:connector-curvature="0" />
    <path
       id="path6360"
       d="m -167.4419,285.30213 15.76153,9.03 v 18.05966 l -15.76153,-9.02966 z"
       style="opacity:0.52300002;fill:none;fill-opacity:1;stroke:#000080;stroke-width:0.79374993;stroke-miterlimit:5;stroke-dasharray:none;stroke-opacity:1"
       inkscape:connector-curvature="0" />
    <path
       id="path6368"
       d="m -113.66641,276.27248 -15.76152,9.02965 15.76152,9.03 15.761523,-9.03 z"
       style="opacity:0.52300002;fill:none;fill-opacity:1;stroke:#000080;stroke-width:0.79374993;stroke-miterlimit:5;stroke-dasharray:none;stroke-opacity:1"
       inkscape:connector-curvature="0" />
    <path
       id="path6370"
       d="m -97.904887,285.30213 -15.761523,9.03 v 18.05966 l 15.761523,-9.02966 z"
       style="opacity:0.52300002;fill:none;fill-opacity:1;stroke:#000080;stroke-width:0.79374993;stroke-miterlimit:5;stroke-dasharray:none;stroke-opacity:1"
       inkscape:connector-curvature="0" />
    <path
       inkscape:connector-curvature="0"
       style="opacity:0.52300002;fill:none;fill-opacity:1;stroke:#000080;stroke-width:0.79374993;stroke-miterlimit:5;stroke-dasharray:none;stroke-opacity:1"
       d="m -129.69253,285.30213 15.76153,9.03 v 18.05966 l -15.76153,-9.02966 z"
       id="path6372" />
    <path
       inkscape:connector-curvature="0"
       style="opacity:0.52300002;fill:none;fill-opacity:1;stroke:#000080;stroke-width:0.79374993;stroke-miterlimit:5;stroke-dasharray:none;stroke-opacity:1"
       d="m -76.269809,276.27248 -15.761519,9.02965 15.761519,9.03 15.761519,-9.03 z"
       id="path6380" />
    <path
       inkscape:connector-curvature="0"
       style="opacity:0.52300002;fill:none;fill-opacity:1;stroke:#000080;stroke-width:0.79374993;stroke-miterlimit:5;stroke-dasharray:none;stroke-opacity:1"
       d="m -60.50829,285.30213 -15.761519,9.03 v 18.05966 l 15.761519,-9.02966 z"
       id="path6382" />
    <path
       id="path6384"
       d="m -92.295928,285.30213 15.761523,9.03 v 18.05966 l -15.761523,-9.02966 z"
       style="opacity:0.52300002;fill:none;fill-opacity:1;stroke:#000080;stroke-width:0.79374993;stroke-miterlimit:5;stroke-dasharray:none;stroke-opacity:1"
       inkscape:connector-curvature="0" />
    <path
       id="path6392"
       d="m -38.873213,276.27248 -15.761518,9.02965 15.761518,9.03 15.761519,-9.03 z"
       style="opacity:0.52300002;fill:none;fill-opacity:1;stroke:#000080;stroke-width:0.79374993;stroke-miterlimit:5;stroke-dasharray:none;stroke-opacity:1"
       inkscape:connector-curvature="0" />
    <path
       id="path6394"
       d="m -23.111694,285.30213 -15.761519,9.03 v 18.05966 l 15.761519,-9.02966 z"
       style="opacity:0.52300002;fill:none;fill-opacity:1;stroke:#000080;stroke-width:0.79374993;stroke-miterlimit:5;stroke-dasharray:none;stroke-opacity:1"
       inkscape:connector-curvature="0" />
    <path
       inkscape:connector-curvature="0"
       style="opacity:0.52300002;fill:none;fill-opacity:1;stroke:#000080;stroke-width:0.79374993;stroke-miterlimit:5;stroke-dasharray:none;stroke-opacity:1"
       d="m -54.89933,285.30213 15.761521,9.03 v 18.05966 l -15.761521,-9.02966 z"
       id="path6396" />
    <path
       inkscape:connector-curvature="0"
       id="path6398"
       d="m -49.870257,303.59278 a 5.0503802,5.6416551 23.376059 0 0 6.945227,-2.9504 5.0503802,5.6416551 23.376059 0 0 -2.182939,-7.27745 5.0503802,5.6416551 23.376059 0 0 -6.945391,2.95047 5.0503802,5.6416551 23.376059 0 0 2.183103,7.27738 z m 0.155169,-0.33349 a 4.7210325,5.2737489 23.376067 0 1 -2.04067,-6.80284 4.7210325,5.2737489 23.376067 0 1 6.492385,-2.75804 4.7210325,5.2737489 23.376067 0 1 2.040669,6.80285 4.7210325,5.2737489 23.376067 0 1 -6.492384,2.75803 z"
       style="opacity:1;fill:#000080;fill-opacity:1;stroke:#000080;stroke-width:0.79375005;stroke-miterlimit:5;stroke-dasharray:none;stroke-opacity:1" />
    <path
       style="opacity:1;fill:#000080;fill-opacity:1;stroke:#000080;stroke-width:0.79374993;stroke-miterlimit:5;stroke-dasharray:none;stroke-opacity:1"
       d="m -71.863868,280.76441 a 5.6224099,6.5103895 84.79827 0 0 -9.133412,1.14677 5.6224099,6.5103895 84.79827 0 0 1.082282,7.8794 5.6224099,6.5103895 84.79827 0 0 9.133646,-1.1468 5.6224099,6.5103895 84.79827 0 0 -1.082516,-7.87937 z m -0.262462,0.29425 a 5.2557587,6.085831 84.79827 0 1 1.011825,7.36556 5.2557587,6.085831 84.79827 0 1 -8.537931,1.072 5.2557587,6.085831 84.79827 0 1 -1.011812,-7.36556 5.2557587,6.085831 84.79827 0 1 8.537918,-1.072 z"
       id="path6406"
       inkscape:connector-curvature="0" />
    <path
       style="opacity:1;fill:#000080;fill-opacity:1;stroke:#000080;stroke-width:0.79374993;stroke-miterlimit:5;stroke-dasharray:none;stroke-opacity:1"
       d="m -62.93547,295.617 a 4.7368081,6.9425592 24.383284 0 0 -5.984573,-3.01649 4.7368081,6.9425592 24.383284 0 0 -4.223817,8.86094 4.7368081,6.9425592 24.383284 0 0 5.984729,3.01656 4.7368081,6.9425592 24.383284 0 0 4.223661,-8.86101 z m -0.332788,0.19064 a 4.4279094,6.4898178 24.383282 0 1 -3.948298,8.28314 4.4279094,6.4898178 24.383282 0 1 -5.594382,-2.81981 4.4279094,6.4898178 24.383282 0 1 3.948296,-8.28314 4.4279094,6.4898178 24.383282 0 1 5.594384,2.81981 z"
       id="path6408"
       inkscape:connector-curvature="0" />
    <path
       style="opacity:0.52300002;fill:none;fill-opacity:1;stroke:#000080;stroke-width:0.79374993;stroke-miterlimit:5;stroke-dasharray:none;stroke-opacity:1"
       d="m -151.41556,276.27255 -15.76183,9.02941 15.76183,9.02994 v 18.0599 l 15.76131,-9.02944 v -18.0604 z m -16.02641,9.02941 v 18.0604 l 15.76182,9.02944 v -18.0599 z"
       id="path6410"
       inkscape:connector-curvature="0" />
    <path
       style="opacity:0.52300002;fill:none;fill-opacity:1;stroke:#000080;stroke-width:0.79374993;stroke-miterlimit:5;stroke-dasharray:none;stroke-opacity:1"
       d="m -113.66645,276.27255 -15.76131,9.02941 15.76131,9.02994 v 18.0599 l 15.761315,-9.02944 v -18.0604 z m -16.02589,9.02941 v 18.0604 l 15.76131,9.02944 v -18.0599 z"
       id="path6417"
       inkscape:connector-curvature="0" />
    <path
       id="path6424"
       d="m -76.269809,276.27248 -15.761519,9.02965 15.761519,9.03 15.761519,-9.03 z"
       style="opacity:0.52300002;fill:none;fill-opacity:1;stroke:#000080;stroke-width:0.79374993;stroke-miterlimit:5;stroke-dasharray:none;stroke-opacity:1"
       inkscape:connector-curvature="0" />
    <path
       id="path6426"
       d="m -60.50829,285.30213 -15.761519,9.03 v 18.05966 l 15.761519,-9.02966 z"
       style="opacity:0.52300002;fill:none;fill-opacity:1;stroke:#000080;stroke-width:0.79374993;stroke-miterlimit:5;stroke-dasharray:none;stroke-opacity:1"
       inkscape:connector-curvature="0" />
    <path
       inkscape:connector-curvature="0"
       style="opacity:0.52300002;fill:none;fill-opacity:1;stroke:#000080;stroke-width:0.79374993;stroke-miterlimit:5;stroke-dasharray:none;stroke-opacity:1"
       d="m -92.295928,285.30213 15.761523,9.03 v 18.05966 l -15.761523,-9.02966 z"
       id="path6428" />
    <g
       id="layer1-0"
       inkscape:label="Layer 1"
       transform="translate(-72.42732,117.20813)">
      <flowRoot
         transform="scale(0.26458333)"
         style="font-style:normal;font-variant:normal;font-weight:normal;font-stretch:normal;font-size:85.33333588px;line-height:1.25;font-family:sans-serif;-inkscape-font-specification:'sans-serif, Normal';font-variant-ligatures:normal;font-variant-caps:normal;font-variant-numeric:normal;font-feature-settings:normal;text-align:center;letter-spacing:0px;word-spacing:0px;writing-mode:lr-tb;text-anchor:middle;fill:#000080;fill-opacity:1;stroke:none"
         id="flowRoot1228-8"
         xml:space="preserve"><flowRegion
           style="font-style:normal;font-variant:normal;font-weight:normal;font-stretch:normal;font-size:85.33333588px;font-family:sans-serif;-inkscape-font-specification:'sans-serif, Normal';font-variant-ligatures:normal;font-variant-caps:normal;font-variant-numeric:normal;font-feature-settings:normal;text-align:center;writing-mode:lr-tb;text-anchor:middle;fill:#000080;fill-opacity:1"
           id="flowRegion1230-7"><rect
             style="font-style:normal;font-variant:normal;font-weight:normal;font-stretch:normal;font-size:85.33333588px;font-family:sans-serif;-inkscape-font-specification:'sans-serif, Normal';font-variant-ligatures:normal;font-variant-caps:normal;font-variant-numeric:normal;font-feature-settings:normal;text-align:center;writing-mode:lr-tb;text-anchor:middle;fill:#000080;fill-opacity:1"
             y="986.75519"
             x="408.70773"
             height="91.923882"
             width="98.994949"
             id="rect1232-6" /></flowRegion><flowPara
           id="flowPara1234-3">?</flowPara></flowRoot>      <path
         inkscape:connector-curvature="0"
         id="rect6212"
         d="m 1.663025,258.46048 v 36.8863 h 36.883873 v -36.8863 z m 1.0283608,1.02843 H 37.518536 v 34.82944 H 2.6913858 Z"
         style="opacity:1;fill:#000080;fill-opacity:1;stroke:#000080;stroke-width:0.79374999;stroke-miterlimit:5;stroke-dasharray:none;stroke-opacity:1" />
      <path
         style="opacity:1;fill:#000080;fill-opacity:1;stroke:#000080;stroke-width:0.79374999;stroke-miterlimit:5;stroke-dasharray:none;stroke-opacity:1"
         d="m 1.663025,222.25975 v 36.88631 h 36.883873 v -36.88631 z m 1.0283608,1.02843 H 37.518536 v 34.82944 H 2.6913858 Z"
         id="path6217"
         inkscape:connector-curvature="0" />
      <path
         inkscape:connector-curvature="0"
         id="path6219"
         d="m 37.861324,258.46048 v 36.8863 h 36.883874 v -36.8863 z m 1.028361,1.02843 h 34.827152 v 34.82944 H 38.889685 Z"
         style="opacity:1;fill:#000080;fill-opacity:1;stroke:#000080;stroke-width:0.79374999;stroke-miterlimit:5;stroke-dasharray:none;stroke-opacity:1" />
      <path
         style="opacity:1;fill:#000080;fill-opacity:1;stroke:#000080;stroke-width:0.79374999;stroke-miterlimit:5;stroke-dasharray:none;stroke-opacity:1"
         d="m 73.511165,258.46048 v 36.8863 h 36.883865 v -36.8863 z m 1.028361,1.02843 h 34.827144 v 34.82944 H 74.539526 Z"
         id="path6221"
         inkscape:connector-curvature="0" />
      <path
         inkscape:connector-curvature="0"
         id="path6223"
         d="m -34.332057,258.23329 v 36.8863 H 2.5518288 v -36.8863 z m 1.028364,1.02843 H 1.5234654 v 34.82944 H -33.303693 Z"
         style="opacity:1;fill:#000080;fill-opacity:1;stroke:#000080;stroke-width:0.79374999;stroke-miterlimit:5;stroke-dasharray:none;stroke-opacity:1" />
      <path
         style="opacity:1;fill:#000080;fill-opacity:1;stroke:#000080;stroke-width:0.79374999;stroke-miterlimit:5;stroke-dasharray:none;stroke-opacity:1"
         d="m 1.663025,294.1127 v 36.8863 h 36.883873 v -36.8863 z m 1.0283608,1.02843 H 37.518536 v 34.82944 H 2.6913858 Z"
         id="path6225"
         inkscape:connector-curvature="0" />
      <path
         style="opacity:1;fill:#000080;fill-opacity:1;stroke:#000080;stroke-width:0.79374999;stroke-miterlimit:5;stroke-dasharray:none;stroke-opacity:1"
         d="m 20.149618,304.10129 a 9.1095081,9.1101075 0 0 0 -9.109378,9.10998 9.1095081,9.1101075 0 0 0 9.109378,9.11021 9.1095081,9.1101075 0 0 0 9.109596,-9.11021 9.1095081,9.1101075 0 0 0 -9.109596,-9.10998 z m 0,0.59397 a 8.5154546,8.5160149 0 0 1 8.515456,8.51601 8.5154546,8.5160149 0 0 1 -8.515456,8.51601 8.5154546,8.5160149 0 0 1 -8.515456,-8.51601 8.5154546,8.5160149 0 0 1 8.515456,-8.51601 z"
         id="path6232-5"
         inkscape:connector-curvature="0" />
      <path
         style="opacity:1;fill:#000080;fill-opacity:1;stroke:#000080;stroke-width:0.79374999;stroke-miterlimit:5;stroke-dasharray:none;stroke-opacity:1"
         d="m 20.039711,268.04845 a 9.1095079,9.1101074 0 0 0 -9.109378,9.10997 9.1095079,9.1101074 0 0 0 9.109378,9.11021 9.1095079,9.1101074 0 0 0 9.109596,-9.11021 9.1095079,9.1101074 0 0 0 -9.109596,-9.10997 z m 0,0.59396 a 8.5154545,8.5160149 0 0 1 8.515456,8.51601 8.5154545,8.5160149 0 0 1 -8.515456,8.51601 8.5154545,8.5160149 0 0 1 -8.515456,-8.51601 8.5154545,8.5160149 0 0 1 8.515456,-8.51601 z"
         id="path6232-5-0"
         inkscape:connector-curvature="0" />
      <path
         inkscape:connector-curvature="0"
         id="path6708"
         d="m 56.552213,268.04845 a 9.1095079,9.1101074 0 0 0 -9.109378,9.10997 9.1095079,9.1101074 0 0 0 9.109378,9.11021 9.1095079,9.1101074 0 0 0 9.109596,-9.11021 9.1095079,9.1101074 0 0 0 -9.109596,-9.10997 z m 0,0.59396 a 8.5154545,8.5160149 0 0 1 8.515456,8.51601 8.5154545,8.5160149 0 0 1 -8.515456,8.51601 8.5154545,8.5160149 0 0 1 -8.515456,-8.51601 8.5154545,8.5160149 0 0 1 8.515456,-8.51601 z"
         style="opacity:1;fill:#000080;fill-opacity:1;stroke:#000080;stroke-width:0.79374999;stroke-miterlimit:5;stroke-dasharray:none;stroke-opacity:1" />
      <path
         style="opacity:1;fill:#000080;fill-opacity:1;stroke:#000080;stroke-width:0.79374999;stroke-miterlimit:5;stroke-dasharray:none;stroke-opacity:1"
         d="m 92.535548,268.04845 a 9.1095079,9.1101074 0 0 0 -9.109378,9.10997 9.1095079,9.1101074 0 0 0 9.109378,9.11021 9.1095079,9.1101074 0 0 0 9.109592,-9.11021 9.1095079,9.1101074 0 0 0 -9.109592,-9.10997 z m 0,0.59396 a 8.5154545,8.5160149 0 0 1 8.515452,8.51601 8.5154545,8.5160149 0 0 1 -8.515452,8.51601 8.5154545,8.5160149 0 0 1 -8.515456,-8.51601 8.5154545,8.5160149 0 0 1 8.515456,-8.51601 z"
         id="path6710"
         inkscape:connector-curvature="0" />
      <path
         inkscape:connector-curvature="0"
         id="path6712"
         d="m -17.266536,267.78387 a 9.1095079,9.1101074 0 0 0 -9.109378,9.10997 9.1095079,9.1101074 0 0 0 9.109378,9.11021 9.1095079,9.1101074 0 0 0 9.1095924,-9.11021 9.1095079,9.1101074 0 0 0 -9.1095924,-9.10997 z m 0,0.59396 a 8.5154545,8.5160149 0 0 1 8.5154524,8.51601 8.5154545,8.5160149 0 0 1 -8.5154524,8.51601 8.5154545,8.5160149 0 0 1 -8.515456,-8.51601 8.5154545,8.5160149 0 0 1 8.515456,-8.51601 z"
         style="opacity:1;fill:#000080;fill-opacity:1;stroke:#000080;stroke-width:0.79374999;stroke-miterlimit:5;stroke-dasharray:none;stroke-opacity:1" />
      <path
         style="opacity:1;fill:#000080;fill-opacity:1;stroke:#000080;stroke-width:3;stroke-miterlimit:5;stroke-dasharray:none;stroke-opacity:1"
         d="m -345.90079,1499.0092 c -22.39636,-5.9143 -30.49262,-32.8402 -15.02321,-49.963 9.97476,-11.0408 27.2455,-12.6863 39.52321,-3.7656 18.88179,13.7191 15.65982,42.3513 -5.83578,51.8598 -4.91923,2.176 -14.04184,3.0894 -18.66422,1.8688 z"
         id="path6714"
         inkscape:connector-curvature="0"
         transform="matrix(0.26458333,0,0,0.26458333,72.42732,-111.91646)" />
      <path
         transform="matrix(0.26458333,0,0,0.26458333,72.42732,-111.91646)"
         inkscape:connector-curvature="0"
         id="path6716"
         d="m -345.90079,1499.0092 c -22.39636,-5.9143 -30.49262,-32.8402 -15.02321,-49.963 9.97476,-11.0408 27.2455,-12.6863 39.52321,-3.7656 18.88179,13.7191 15.65982,42.3513 -5.83578,51.8598 -4.91923,2.176 -14.04184,3.0894 -18.66422,1.8688 z"
         style="opacity:1;fill:#000080;fill-opacity:1;stroke:#000080;stroke-width:3;stroke-miterlimit:5;stroke-dasharray:none;stroke-opacity:1" />
      <path
         style="opacity:1;fill:#000080;fill-opacity:1;stroke:#000080;stroke-width:2.64583325;stroke-miterlimit:5;stroke-dasharray:none;stroke-opacity:1"
         d="m 17.949404,248.18389 c -5.925704,-1.56483 -8.067839,-8.68897 -3.974891,-13.21938 2.639155,-2.92121 7.208705,-3.35658 10.457182,-0.99632 4.995807,3.62985 4.143328,11.20545 -1.54405,13.72124 -1.301546,0.57574 -3.715236,0.81741 -4.938241,0.49446 z"
         id="path6718"
         inkscape:connector-curvature="0" />
      <path
         style="opacity:1;fill:#000080;fill-opacity:1;stroke:#000080;stroke-width:0.79374999;stroke-miterlimit:5;stroke-dasharray:none;stroke-opacity:1"
         d="m -88.12688,187.90719 c -4.150379,-1.0961 -5.650737,-6.08629 -2.784025,-9.25968 1.848472,-2.04619 5.048997,-2.35115 7.32424,-0.69788 3.499077,2.54257 2.901997,7.84899 -1.081457,9.61121 -0.911606,0.40328 -2.602162,0.57256 -3.458758,0.34635 z"
         id="path6720"
         inkscape:connector-curvature="0" />
      <path
         inkscape:connector-curvature="0"
         id="path6722"
         d="m -71.987297,187.37802 c -4.150379,-1.0961 -5.650737,-6.08629 -2.784025,-9.25968 1.848472,-2.04619 5.048997,-2.35115 7.32424,-0.69788 3.499077,2.54257 2.901997,7.84899 -1.081457,9.61121 -0.911606,0.40328 -2.602162,0.57256 -3.458758,0.34635 z"
         style="opacity:1;fill:#000080;fill-opacity:1;stroke:#000080;stroke-width:0.79374999;stroke-miterlimit:5;stroke-dasharray:none;stroke-opacity:1" />
      <path
         style="opacity:1;fill:#000080;fill-opacity:1;stroke:#000080;stroke-width:0.79374999;stroke-miterlimit:5;stroke-dasharray:none;stroke-opacity:1"
         d="m -42.353964,173.3551 c -4.150379,-1.0961 -5.650737,-6.08629 -2.784025,-9.25968 1.848472,-2.04619 5.048997,-2.35115 7.32424,-0.69788 3.499077,2.54257 2.901997,7.84899 -1.081457,9.61121 -0.911606,0.40328 -2.602162,0.57256 -3.458758,0.34635 z"
         id="path6724"
         inkscape:connector-curvature="0" />
      <path
         inkscape:connector-curvature="0"
         id="path6726"
         d="m -51.349797,187.11343 c -4.150379,-1.0961 -5.650737,-6.08629 -2.784025,-9.25968 1.848472,-2.04619 5.048997,-2.35115 7.32424,-0.69788 3.499077,2.54257 2.901997,7.84899 -1.081457,9.61121 -0.911606,0.40328 -2.602162,0.57256 -3.458758,0.34635 z"
         style="opacity:1;fill:#000080;fill-opacity:1;stroke:#000080;stroke-width:0.79374999;stroke-miterlimit:5;stroke-dasharray:none;stroke-opacity:1" />
      <path
         inkscape:connector-curvature="0"
         id="path6728"
         d="m -34.416464,186.84885 c -4.150379,-1.0961 -5.650737,-6.08629 -2.784025,-9.25968 1.848472,-2.04619 5.048997,-2.35115 7.32424,-0.69788 3.499077,2.54257 2.901997,7.84899 -1.081457,9.61121 -0.911606,0.40328 -2.602162,0.57256 -3.458758,0.34635 z"
         style="opacity:1;fill:#000080;fill-opacity:1;stroke:#000080;stroke-width:0.79374999;stroke-miterlimit:5;stroke-dasharray:none;stroke-opacity:1" />
      <path
         inkscape:connector-curvature="0"
         id="path6734"
         d="m 32.258536,172.82593 c -4.150379,-1.0961 -5.650737,-6.08629 -2.784025,-9.25968 1.848472,-2.04619 5.048997,-2.35115 7.32424,-0.69788 3.499077,2.54257 2.901997,7.84899 -1.081457,9.61121 -0.911606,0.40328 -2.602162,0.57256 -3.458758,0.34635 z"
         style="opacity:1;fill:#000080;fill-opacity:1;stroke:#000080;stroke-width:0.79374999;stroke-miterlimit:5;stroke-dasharray:none;stroke-opacity:1" />
    </g>
    <path
       style="opacity:1;fill:#000080;fill-opacity:1;stroke:#000080;stroke-width:0.79375005;stroke-miterlimit:5;stroke-dasharray:none;stroke-opacity:1"
       d="m -88.172619,294.03877 a 5.6416551,5.0503802 54.920203 0 0 -1.118992,7.4625 5.6416551,5.0503802 54.920203 0 0 7.344131,1.94686 5.6416551,5.0503802 54.920203 0 0 1.119018,-7.46268 5.6416551,5.0503802 54.920203 0 0 -7.344157,-1.94668 z m 0.203035,0.30671 a 5.2737489,4.7210325 54.920211 0 1 6.865222,1.81981 5.2737489,4.7210325 54.920211 0 1 -1.046022,6.97594 5.2737489,4.7210325 54.920211 0 1 -6.865229,-1.81982 5.2737489,4.7210325 54.920211 0 1 1.046029,-6.97593 z"
       id="path6730"
       inkscape:connector-curvature="0" />
    <path
       inkscape:connector-curvature="0"
       id="path6732"
       d="m -25.364637,295.617 a 4.7368081,6.9425592 24.383284 0 0 -5.984573,-3.01649 4.7368081,6.9425592 24.383284 0 0 -4.223817,8.86094 4.7368081,6.9425592 24.383284 0 0 5.984729,3.01656 4.7368081,6.9425592 24.383284 0 0 4.223661,-8.86101 z m -0.332788,0.19064 a 4.4279094,6.4898178 24.383282 0 1 -3.948298,8.28314 4.4279094,6.4898178 24.383282 0 1 -5.594382,-2.81981 4.4279094,6.4898178 24.383282 0 1 3.948296,-8.28314 4.4279094,6.4898178 24.383282 0 1 5.594384,2.81981 z"
       style="opacity:1;fill:#000080;fill-opacity:1;stroke:#000080;stroke-width:0.79374993;stroke-miterlimit:5;stroke-dasharray:none;stroke-opacity:1" />
    <path
       inkscape:connector-curvature="0"
       style="opacity:0.52300002;fill:none;fill-opacity:1;stroke:#000080;stroke-width:0.79374993;stroke-miterlimit:5;stroke-dasharray:none;stroke-opacity:1"
       d="m -38.873213,276.27248 -15.761518,9.02965 15.761518,9.03 15.761519,-9.03 z"
       id="path6736" />
    <path
       inkscape:connector-curvature="0"
       style="opacity:0.52300002;fill:none;fill-opacity:1;stroke:#000080;stroke-width:0.79374993;stroke-miterlimit:5;stroke-dasharray:none;stroke-opacity:1"
       d="m -23.111694,285.30213 -15.761519,9.03 v 18.05966 l 15.761519,-9.02966 z"
       id="path6738" />
    <path
       id="path6740"
       d="m -54.89933,285.30213 15.761521,9.03 v 18.05966 l -15.761521,-9.02966 z"
       style="opacity:0.52300002;fill:none;fill-opacity:1;stroke:#000080;stroke-width:0.79374993;stroke-miterlimit:5;stroke-dasharray:none;stroke-opacity:1"
       inkscape:connector-curvature="0" />
  </g>
</svg>
