<?xml version="1.0" encoding="UTF-8" standalone="no"?>
<!-- Created with Inkscape (http://www.inkscape.org/) -->

<svg
   xmlns:dc="http://purl.org/dc/elements/1.1/"
   xmlns:cc="http://creativecommons.org/ns#"
   xmlns:rdf="http://www.w3.org/1999/02/22-rdf-syntax-ns#"
   xmlns:svg="http://www.w3.org/2000/svg"
   xmlns="http://www.w3.org/2000/svg"
   xmlns:sodipodi="http://sodipodi.sourceforge.net/DTD/sodipodi-0.dtd"
   xmlns:inkscape="http://www.inkscape.org/namespaces/inkscape"
   width="210mm"
   height="297mm"
   viewBox="0 0 210 297"
   version="1.1"
   id="svg8"
   inkscape:export-filename="/home/doug-wray/Documents/Quiz/Web/img/16/question16.png"
   inkscape:export-xdpi="96.5"
   inkscape:export-ydpi="96.5"
   inkscape:version="0.92.4 (f8dce91, 2019-08-02)"
   sodipodi:docname="question17.svg">
  <defs
     id="defs2">
    <inkscape:perspective
       sodipodi:type="inkscape:persp3d"
       inkscape:vp_x="-1.0971948 : 170.12301 : 1"
       inkscape:vp_y="0 : 772.58967 : 0"
       inkscape:vp_z="163.0802 : 170.12301 : 1"
       inkscape:persp3d-origin="80.991505 : 131.87983 : 1"
       id="perspective6263" />
  </defs>
  <sodipodi:namedview
     id="base"
     pagecolor="#ffffff"
     bordercolor="#666666"
     borderopacity="1.0"
     inkscape:pageopacity="0.0"
     inkscape:pageshadow="2"
     inkscape:zoom="1"
     inkscape:cx="-119.20079"
     inkscape:cy="-286.96916"
     inkscape:document-units="px"
     inkscape:current-layer="layer1-0"
     showgrid="false"
     showborder="false"
     showguides="true"
     inkscape:guide-bbox="true"
     inkscape:snap-grids="false"
     inkscape:window-width="1920"
     inkscape:window-height="1052"
     inkscape:window-x="1366"
     inkscape:window-y="0"
     inkscape:window-maximized="1"
     inkscape:snap-to-guides="false"
     inkscape:snap-global="false"
     inkscape:snap-nodes="true"
     inkscape:snap-others="false">
    <sodipodi:guide
       position="-235.47917,-119.32708"
       orientation="1,0"
       id="guide1146"
       inkscape:locked="false" />
    <sodipodi:guide
       position="-222.24999,-91.016669"
       orientation="1,0"
       id="guide1150"
       inkscape:locked="false" />
    <sodipodi:guide
       position="-80.822303,-26.566592"
       orientation="0,1"
       id="guide6341"
       inkscape:locked="false" />
  </sodipodi:namedview>
  <metadata
     id="metadata5">
    <rdf:RDF>
      <cc:Work
         rdf:about="">
        <dc:format>image/svg+xml</dc:format>
        <dc:type
           rdf:resource="http://purl.org/dc/dcmitype/StillImage" />
        <dc:title></dc:title>
      </cc:Work>
    </rdf:RDF>
  </metadata>
  <g
     inkscape:label="Layer 1"
     inkscape:groupmode="layer"
     id="layer1">
    <flowRoot
       xml:space="preserve"
       id="flowRoot1228"
       style="font-style:normal;font-weight:normal;font-size:85.33333463px;line-height:1.25;font-family:sans-serif;letter-spacing:0px;word-spacing:0px;fill:#000080;fill-opacity:1;stroke:none;-inkscape-font-specification:'sans-serif, Normal';font-stretch:normal;font-variant:normal;text-anchor:middle;text-align:center;writing-mode:lr;font-variant-ligatures:normal;font-variant-caps:normal;font-variant-numeric:normal;font-feature-settings:normal;"
       transform="scale(0.26458333)"><flowRegion
         id="flowRegion1230"
         style="fill:#000080;fill-opacity:1;-inkscape-font-specification:'sans-serif, Normal';font-family:sans-serif;font-weight:normal;font-style:normal;font-stretch:normal;font-variant:normal;font-size:85.33333463px;text-anchor:middle;text-align:center;writing-mode:lr;font-variant-ligatures:normal;font-variant-caps:normal;font-variant-numeric:normal;font-feature-settings:normal;"><rect
           id="rect1232"
           width="98.994949"
           height="91.923882"
           x="408.70773"
           y="986.75519"
           style="fill:#000080;fill-opacity:1;-inkscape-font-specification:'sans-serif, Normal';font-family:sans-serif;font-weight:normal;font-style:normal;font-stretch:normal;font-variant:normal;font-size:85.33333463px;text-anchor:middle;text-align:center;writing-mode:lr;font-variant-ligatures:normal;font-variant-caps:normal;font-variant-numeric:normal;font-feature-settings:normal;" /></flowRegion><flowPara
         id="flowPara1234">?</flowPara></flowRoot>    <path
       inkscape:connector-curvature="0"
       id="path6232"
       d="m -147.36267,280.76441 a 5.6224099,6.5103895 84.79827 0 0 -9.13341,1.14677 5.6224099,6.5103895 84.79827 0 0 1.08228,7.8794 5.6224099,6.5103895 84.79827 0 0 9.13364,-1.1468 5.6224099,6.5103895 84.79827 0 0 -1.08251,-7.87937 z m -0.26246,0.29425 a 5.2557587,6.085831 84.79827 0 1 1.01182,7.36556 5.2557587,6.085831 84.79827 0 1 -8.53793,1.072 5.2557587,6.085831 84.79827 0 1 -1.01181,-7.36556 5.2557587,6.085831 84.79827 0 1 8.53792,-1.072 z"
       style="opacity:1;fill:#000080;fill-opacity:1;stroke:#000080;stroke-width:0.79374993;stroke-miterlimit:5;stroke-dasharray:none;stroke-opacity:1" />
    <path
       style="opacity:0.52300002;fill:none;fill-opacity:1;stroke:#000080;stroke-width:0.79374993;stroke-miterlimit:5;stroke-dasharray:none;stroke-opacity:1"
       d="m -151.41577,276.27248 -15.76153,9.02965 15.76153,9.03 15.76153,-9.03 z"
       id="path6350"
       inkscape:connector-curvature="0" />
    <path
       style="opacity:0.52300002;fill:none;fill-opacity:1;stroke:#000080;stroke-width:0.79374993;stroke-miterlimit:5;stroke-dasharray:none;stroke-opacity:1"
       d="m -135.65424,285.30213 -15.76153,9.03 v 18.05966 l 15.76153,-9.02966 z"
       id="path6352"
       inkscape:connector-curvature="0" />
    <path
       id="path6360"
       d="m -167.4419,285.30213 15.76153,9.03 v 18.05966 l -15.76153,-9.02966 z"
       style="opacity:0.52300002;fill:none;fill-opacity:1;stroke:#000080;stroke-width:0.79374993;stroke-miterlimit:5;stroke-dasharray:none;stroke-opacity:1"
       inkscape:connector-curvature="0" />
    <path
       id="path6368"
       d="m -113.66641,276.27248 -15.76152,9.02965 15.76152,9.03 15.761523,-9.03 z"
       style="opacity:0.52300002;fill:none;fill-opacity:1;stroke:#000080;stroke-width:0.79374993;stroke-miterlimit:5;stroke-dasharray:none;stroke-opacity:1"
       inkscape:connector-curvature="0" />
    <path
       id="path6370"
       d="m -97.904887,285.30213 -15.761523,9.03 v 18.05966 l 15.761523,-9.02966 z"
       style="opacity:0.52300002;fill:none;fill-opacity:1;stroke:#000080;stroke-width:0.79374993;stroke-miterlimit:5;stroke-dasharray:none;stroke-opacity:1"
       inkscape:connector-curvature="0" />
    <path
       inkscape:connector-curvature="0"
       style="opacity:0.52300002;fill:none;fill-opacity:1;stroke:#000080;stroke-width:0.79374993;stroke-miterlimit:5;stroke-dasharray:none;stroke-opacity:1"
       d="m -129.69253,285.30213 15.76153,9.03 v 18.05966 l -15.76153,-9.02966 z"
       id="path6372" />
    <path
       inkscape:connector-curvature="0"
       style="opacity:0.52300002;fill:none;fill-opacity:1;stroke:#000080;stroke-width:0.79374993;stroke-miterlimit:5;stroke-dasharray:none;stroke-opacity:1"
       d="m -76.269809,276.27248 -15.761519,9.02965 15.761519,9.03 15.761519,-9.03 z"
       id="path6380" />
    <path
       inkscape:connector-curvature="0"
       style="opacity:0.52300002;fill:none;fill-opacity:1;stroke:#000080;stroke-width:0.79374993;stroke-miterlimit:5;stroke-dasharray:none;stroke-opacity:1"
       d="m -60.50829,285.30213 -15.761519,9.03 v 18.05966 l 15.761519,-9.02966 z"
       id="path6382" />
    <path
       id="path6384"
       d="m -92.295928,285.30213 15.761523,9.03 v 18.05966 l -15.761523,-9.02966 z"
       style="opacity:0.52300002;fill:none;fill-opacity:1;stroke:#000080;stroke-width:0.79374993;stroke-miterlimit:5;stroke-dasharray:none;stroke-opacity:1"
       inkscape:connector-curvature="0" />
    <path
       id="path6392"
       d="m -38.873213,276.27248 -15.761518,9.02965 15.761518,9.03 15.761519,-9.03 z"
       style="opacity:0.52300002;fill:none;fill-opacity:1;stroke:#000080;stroke-width:0.79374993;stroke-miterlimit:5;stroke-dasharray:none;stroke-opacity:1"
       inkscape:connector-curvature="0" />
    <path
       id="path6394"
       d="m -23.111694,285.30213 -15.761519,9.03 v 18.05966 l 15.761519,-9.02966 z"
       style="opacity:0.52300002;fill:none;fill-opacity:1;stroke:#000080;stroke-width:0.79374993;stroke-miterlimit:5;stroke-dasharray:none;stroke-opacity:1"
       inkscape:connector-curvature="0" />
    <path
       inkscape:connector-curvature="0"
       style="opacity:0.52300002;fill:none;fill-opacity:1;stroke:#000080;stroke-width:0.79374993;stroke-miterlimit:5;stroke-dasharray:none;stroke-opacity:1"
       d="m -54.89933,285.30213 15.761521,9.03 v 18.05966 l -15.761521,-9.02966 z"
       id="path6396" />
    <path
       style="opacity:0.52300002;fill:none;fill-opacity:1;stroke:#000080;stroke-width:0.79374993;stroke-miterlimit:5;stroke-dasharray:none;stroke-opacity:1"
       d="m -151.41556,276.27255 -15.76183,9.02941 15.76183,9.02994 v 18.0599 l 15.76131,-9.02944 v -18.0604 z m -16.02641,9.02941 v 18.0604 l 15.76182,9.02944 v -18.0599 z"
       id="path6410"
       inkscape:connector-curvature="0" />
    <path
       style="opacity:0.52300002;fill:none;fill-opacity:1;stroke:#000080;stroke-width:0.79374993;stroke-miterlimit:5;stroke-dasharray:none;stroke-opacity:1"
       d="m -113.66645,276.27255 -15.76131,9.02941 15.76131,9.02994 v 18.0599 l 15.761315,-9.02944 v -18.0604 z m -16.02589,9.02941 v 18.0604 l 15.76131,9.02944 v -18.0599 z"
       id="path6417"
       inkscape:connector-curvature="0" />
    <path
       id="path6424"
       d="m -76.269809,276.27248 -15.761519,9.02965 15.761519,9.03 15.761519,-9.03 z"
       style="opacity:0.52300002;fill:none;fill-opacity:1;stroke:#000080;stroke-width:0.79374993;stroke-miterlimit:5;stroke-dasharray:none;stroke-opacity:1"
       inkscape:connector-curvature="0" />
    <path
       id="path6426"
       d="m -60.50829,285.30213 -15.761519,9.03 v 18.05966 l 15.761519,-9.02966 z"
       style="opacity:0.52300002;fill:none;fill-opacity:1;stroke:#000080;stroke-width:0.79374993;stroke-miterlimit:5;stroke-dasharray:none;stroke-opacity:1"
       inkscape:connector-curvature="0" />
    <path
       inkscape:connector-curvature="0"
       style="opacity:0.52300002;fill:none;fill-opacity:1;stroke:#000080;stroke-width:0.79374993;stroke-miterlimit:5;stroke-dasharray:none;stroke-opacity:1"
       d="m -92.295928,285.30213 15.761523,9.03 v 18.05966 l -15.761523,-9.02966 z"
       id="path6428" />
    <g
       id="layer1-0"
       inkscape:label="Layer 1"
       transform="translate(-72.42732,117.20813)">
      <flowRoot
         transform="scale(0.26458333)"
         style="font-style:normal;font-variant:normal;font-weight:normal;font-stretch:normal;font-size:85.33333588px;line-height:1.25;font-family:sans-serif;-inkscape-font-specification:'sans-serif, Normal';font-variant-ligatures:normal;font-variant-caps:normal;font-variant-numeric:normal;font-feature-settings:normal;text-align:center;letter-spacing:0px;word-spacing:0px;writing-mode:lr-tb;text-anchor:middle;fill:#000080;fill-opacity:1;stroke:none"
         id="flowRoot1228-8"
         xml:space="preserve"><flowRegion
           style="font-style:normal;font-variant:normal;font-weight:normal;font-stretch:normal;font-size:85.33333588px;font-family:sans-serif;-inkscape-font-specification:'sans-serif, Normal';font-variant-ligatures:normal;font-variant-caps:normal;font-variant-numeric:normal;font-feature-settings:normal;text-align:center;writing-mode:lr-tb;text-anchor:middle;fill:#000080;fill-opacity:1"
           id="flowRegion1230-7"><rect
             style="font-style:normal;font-variant:normal;font-weight:normal;font-stretch:normal;font-size:85.33333588px;font-family:sans-serif;-inkscape-font-specification:'sans-serif, Normal';font-variant-ligatures:normal;font-variant-caps:normal;font-variant-numeric:normal;font-feature-settings:normal;text-align:center;writing-mode:lr-tb;text-anchor:middle;fill:#000080;fill-opacity:1"
             y="986.75519"
             x="408.70773"
             height="91.923882"
             width="98.994949"
             id="rect1232-6" /></flowRegion><flowPara
           id="flowPara1234-3">?</flowPara></flowRoot>      <path
         inkscape:connector-curvature="0"
         id="rect6212"
         d="m 1.663025,258.46048 v 36.8863 h 36.883873 v -36.8863 z m 1.0283608,1.02843 H 37.518536 v 34.82944 H 2.6913858 Z"
         style="opacity:1;fill:#000080;fill-opacity:1;stroke:#000080;stroke-width:0.79374999;stroke-miterlimit:5;stroke-dasharray:none;stroke-opacity:1" />
      <path
         style="opacity:1;fill:#000080;fill-opacity:1;stroke:#000080;stroke-width:0.79374999;stroke-miterlimit:5;stroke-dasharray:none;stroke-opacity:1"
         d="m 1.663025,222.25975 v 36.88631 h 36.883873 v -36.88631 z m 1.0283608,1.02843 H 37.518536 v 34.82944 H 2.6913858 Z"
         id="path6217"
         inkscape:connector-curvature="0" />
      <path
         inkscape:connector-curvature="0"
         id="path6219"
         d="m 37.861324,258.46048 v 36.8863 h 36.883874 v -36.8863 z m 1.028361,1.02843 h 34.827152 v 34.82944 H 38.889685 Z"
         style="opacity:1;fill:#000080;fill-opacity:1;stroke:#000080;stroke-width:0.79374999;stroke-miterlimit:5;stroke-dasharray:none;stroke-opacity:1" />
      <path
         style="opacity:1;fill:#000080;fill-opacity:1;stroke:#000080;stroke-width:0.79374999;stroke-miterlimit:5;stroke-dasharray:none;stroke-opacity:1"
         d="m 73.511165,258.46048 v 36.8863 h 36.883865 v -36.8863 z m 1.028361,1.02843 h 34.827144 v 34.82944 H 74.539526 Z"
         id="path6221"
         inkscape:connector-curvature="0" />
      <path
         inkscape:connector-curvature="0"
         id="path6223"
         d="m -34.332057,258.23329 v 36.8863 H 2.5518288 v -36.8863 z m 1.028364,1.02843 H 1.5234654 v 34.82944 H -33.303693 Z"
         style="opacity:1;fill:#000080;fill-opacity:1;stroke:#000080;stroke-width:0.79374999;stroke-miterlimit:5;stroke-dasharray:none;stroke-opacity:1" />
      <path
         style="opacity:1;fill:#000080;fill-opacity:1;stroke:#000080;stroke-width:0.79374999;stroke-miterlimit:5;stroke-dasharray:none;stroke-opacity:1"
         d="m 1.663025,294.1127 v 36.8863 h 36.883873 v -36.8863 z m 1.0283608,1.02843 H 37.518536 v 34.82944 H 2.6913858 Z"
         id="path6225"
         inkscape:connector-curvature="0" />
      <path
         style="opacity:1;fill:#000080;fill-opacity:1;stroke:#000080;stroke-width:2.64583325;stroke-miterlimit:5;stroke-dasharray:none;stroke-opacity:1"
         d="m 18.478571,322.26722 c -5.925704,-1.56483 -8.067839,-8.68897 -3.974891,-13.21938 2.639155,-2.92121 7.208705,-3.35658 10.457182,-0.99632 4.995807,3.62985 4.143328,11.20545 -1.54405,13.72124 -1.301546,0.57574 -3.715236,0.81741 -4.938241,0.49446 z"
         id="path6718"
         inkscape:connector-curvature="0" />
      <path
         inkscape:connector-curvature="0"
         id="path6770"
         d="m -26.999778,268.12437 c -1.555509,-0.41245 -2.117823,-2.2902 -1.043416,-3.48431 0.692783,-0.76996 1.892298,-0.88472 2.745029,-0.26261 1.311409,0.95674 1.087632,2.95349 -0.405316,3.61659 -0.341658,0.15176 -0.975256,0.21545 -1.296297,0.13033 z"
         style="opacity:1;fill:#000080;fill-opacity:1;stroke:#000080;stroke-width:2.64583325;stroke-miterlimit:5;stroke-dasharray:none;stroke-opacity:1" />
      <path
         style="opacity:1;fill:#000080;fill-opacity:1;stroke:#000080;stroke-width:2.64583325;stroke-miterlimit:5;stroke-dasharray:none;stroke-opacity:1"
         d="m -6.8914443,268.12437 c -1.5555086,-0.41245 -2.1178233,-2.2902 -1.0434159,-3.48431 0.6927829,-0.76996 1.8922979,-0.88472 2.7450289,-0.26261 1.3114087,0.95674 1.0876317,2.95349 -0.405316,3.61659 -0.341658,0.15176 -0.975256,0.21545 -1.296297,0.13033 z"
         id="path6772"
         inkscape:connector-curvature="0" />
      <path
         inkscape:connector-curvature="0"
         id="path6774"
         d="m -16.945613,278.70771 c -1.555509,-0.41245 -2.117824,-2.2902 -1.043416,-3.48431 0.692783,-0.76996 1.892298,-0.88472 2.745029,-0.26261 1.311409,0.95674 1.087632,2.95349 -0.405316,3.61659 -0.341658,0.15176 -0.975256,0.21545 -1.296297,0.13033 z"
         style="opacity:1;fill:#000080;fill-opacity:1;stroke:#000080;stroke-width:2.64583325;stroke-miterlimit:5;stroke-dasharray:none;stroke-opacity:1" />
      <path
         style="opacity:1;fill:#000080;fill-opacity:1;stroke:#000080;stroke-width:2.64583325;stroke-miterlimit:5;stroke-dasharray:none;stroke-opacity:1"
         d="m -26.999778,289.29105 c -1.555509,-0.41245 -2.117823,-2.2902 -1.043416,-3.48431 0.692783,-0.76996 1.892298,-0.88472 2.745029,-0.26261 1.311409,0.95674 1.087632,2.95349 -0.405316,3.61659 -0.341658,0.15176 -0.975256,0.21545 -1.296297,0.13033 z"
         id="path6776"
         inkscape:connector-curvature="0" />
      <path
         inkscape:connector-curvature="0"
         id="path6778"
         d="m -6.8914443,289.29105 c -1.5555086,-0.41245 -2.1178233,-2.2902 -1.0434159,-3.48431 0.6927829,-0.76996 1.8922979,-0.88472 2.7450289,-0.26261 1.3114087,0.95674 1.0876317,2.95349 -0.405316,3.61659 -0.341658,0.15176 -0.975256,0.21545 -1.296297,0.13033 z"
         style="opacity:1;fill:#000080;fill-opacity:1;stroke:#000080;stroke-width:2.64583325;stroke-miterlimit:5;stroke-dasharray:none;stroke-opacity:1" />
      <path
         style="opacity:1;fill:#000080;fill-opacity:1;stroke:#000080;stroke-width:2.64583325;stroke-miterlimit:5;stroke-dasharray:none;stroke-opacity:1"
         d="m 45.496058,268.12437 c -1.55551,-0.41245 -2.117824,-2.2902 -1.043417,-3.48431 0.692783,-0.76996 1.892299,-0.88472 2.745029,-0.26261 1.311409,0.95674 1.087632,2.95349 -0.405316,3.61659 -0.341657,0.15176 -0.975255,0.21545 -1.296296,0.13033 z"
         id="path6780"
         inkscape:connector-curvature="0" />
      <path
         inkscape:connector-curvature="0"
         id="path6782"
         d="m 65.604391,268.12437 c -1.555508,-0.41245 -2.117823,-2.2902 -1.043415,-3.48431 0.692782,-0.76996 1.892297,-0.88472 2.745029,-0.26261 1.311408,0.95674 1.087631,2.95349 -0.405316,3.61659 -0.341659,0.15176 -0.975257,0.21545 -1.296298,0.13033 z"
         style="opacity:1;fill:#000080;fill-opacity:1;stroke:#000080;stroke-width:2.64583325;stroke-miterlimit:5;stroke-dasharray:none;stroke-opacity:1" />
      <path
         inkscape:connector-curvature="0"
         id="path6784"
         d="m 45.496058,289.29105 c -1.55551,-0.41245 -2.117824,-2.2902 -1.043417,-3.48431 0.692783,-0.76996 1.892299,-0.88472 2.745029,-0.26261 1.311409,0.95674 1.087632,2.95349 -0.405316,3.61659 -0.341657,0.15176 -0.975255,0.21545 -1.296296,0.13033 z"
         style="opacity:1;fill:#000080;fill-opacity:1;stroke:#000080;stroke-width:2.64583325;stroke-miterlimit:5;stroke-dasharray:none;stroke-opacity:1" />
      <path
         style="opacity:1;fill:#000080;fill-opacity:1;stroke:#000080;stroke-width:2.64583325;stroke-miterlimit:5;stroke-dasharray:none;stroke-opacity:1"
         d="m 65.604391,289.29105 c -1.555508,-0.41245 -2.117823,-2.2902 -1.043415,-3.48431 0.692782,-0.76996 1.892297,-0.88472 2.745029,-0.26261 1.311408,0.95674 1.087631,2.95349 -0.405316,3.61659 -0.341659,0.15176 -0.975257,0.21545 -1.296298,0.13033 z"
         id="path6786"
         inkscape:connector-curvature="0" />
      <path
         inkscape:connector-curvature="0"
         id="path6788"
         d="m 91.533558,278.17852 c -1.55551,-0.41245 -2.117824,-2.2902 -1.043417,-3.48431 0.692783,-0.76996 1.892299,-0.88472 2.745029,-0.26261 1.311409,0.95674 1.087632,2.95349 -0.405316,3.61659 -0.341657,0.15176 -0.975255,0.21545 -1.296296,0.13033 z"
         style="opacity:1;fill:#000080;fill-opacity:1;stroke:#000080;stroke-width:2.64583325;stroke-miterlimit:5;stroke-dasharray:none;stroke-opacity:1" />
      <path
         inkscape:connector-curvature="0"
         id="path6790"
         d="m 20.039711,231.00678 a 9.1095079,9.1101074 0 0 0 -9.109378,9.10997 9.1095079,9.1101074 0 0 0 9.109378,9.11021 9.1095079,9.1101074 0 0 0 9.109596,-9.11021 9.1095079,9.1101074 0 0 0 -9.109596,-9.10997 z m 0,0.59396 a 8.5154545,8.5160149 0 0 1 8.515456,8.51601 8.5154545,8.5160149 0 0 1 -8.515456,8.51601 8.5154545,8.5160149 0 0 1 -8.515456,-8.51601 8.5154545,8.5160149 0 0 1 8.515456,-8.51601 z"
         style="opacity:1;fill:#000080;fill-opacity:1;stroke:#000080;stroke-width:0.79374999;stroke-miterlimit:5;stroke-dasharray:none;stroke-opacity:1" />
      <rect
         style="opacity:1;fill:#000080;fill-opacity:1;stroke:#000080;stroke-width:2.64583325;stroke-miterlimit:5;stroke-dasharray:none;stroke-opacity:1"
         id="rect6792"
         width="21.960417"
         height="21.960417"
         x="8.9273205"
         y="266.5752" />
      <rect
         y="229.91885"
         x="105.21879"
         height="7.831161"
         width="8.960288"
         id="rect6794"
         style="opacity:1;fill:#000080;fill-opacity:1;stroke:#000080;stroke-width:2.84928226;stroke-miterlimit:5;stroke-dasharray:none;stroke-opacity:1"
         transform="matrix(-0.880355,-0.47431537,0.03682508,0.99932173,0,0)" />
      <path
         inkscape:connector-curvature="0"
         id="path6804"
         d="m -74.327942,179.52242 c -0.534624,-0.14309 -0.72789,-0.79451 -0.358619,-1.20875 0.238107,-0.26712 0.650378,-0.30693 0.943458,-0.0911 0.450728,0.3319 0.373817,1.02461 -0.139305,1.25465 -0.117427,0.0526 -0.335193,0.0747 -0.445534,0.0452 z"
         style="opacity:1;fill:#000080;fill-opacity:1;stroke:#000080;stroke-width:2.64583325;stroke-miterlimit:5;stroke-dasharray:none;stroke-opacity:1" />
      <path
         style="opacity:1;fill:#000080;fill-opacity:1;stroke:#000080;stroke-width:2.64583325;stroke-miterlimit:5;stroke-dasharray:none;stroke-opacity:1"
         d="m -67.681348,176.612 c -0.534623,-0.14309 -0.727889,-0.79451 -0.358619,-1.20875 0.238108,-0.26712 0.650378,-0.30693 0.943459,-0.0911 0.450727,0.3319 0.373816,1.02461 -0.139306,1.25465 -0.117427,0.0526 -0.335192,0.0747 -0.445534,0.0452 z"
         id="path6806"
         inkscape:connector-curvature="0" />
      <path
         style="opacity:1;fill:#000080;fill-opacity:1;stroke:#000080;stroke-width:2.64583325;stroke-miterlimit:5;stroke-dasharray:none;stroke-opacity:1"
         d="m -73.534192,188.18832 c -0.534624,-0.14308 -0.72789,-0.7945 -0.358619,-1.20875 0.238107,-0.26711 0.650378,-0.30692 0.943458,-0.0911 0.450728,0.3319 0.373817,1.0246 -0.139305,1.25464 -0.117427,0.0526 -0.335193,0.0747 -0.445534,0.0452 z"
         id="path6808"
         inkscape:connector-curvature="0" />
      <path
         inkscape:connector-curvature="0"
         id="path6810"
         d="m -67.152181,185.01333 c -0.534623,-0.14308 -0.727889,-0.7945 -0.358619,-1.20875 0.238108,-0.26711 0.650378,-0.30692 0.943459,-0.0911 0.450727,0.3319 0.373816,1.0246 -0.139306,1.25464 -0.117427,0.0526 -0.335192,0.0747 -0.445534,0.0452 z"
         style="opacity:1;fill:#000080;fill-opacity:1;stroke:#000080;stroke-width:2.64583325;stroke-miterlimit:5;stroke-dasharray:none;stroke-opacity:1" />
      <rect
         transform="matrix(-0.880355,-0.47431537,0.03682508,0.99932173,0,0)"
         style="opacity:1;fill:#000080;fill-opacity:1;stroke:#000080;stroke-width:2.84928226;stroke-miterlimit:5;stroke-dasharray:none;stroke-opacity:1"
         id="rect6813"
         width="8.960288"
         height="7.831161"
         x="61.052849"
         y="208.69128" />
      <path
         style="opacity:1;fill:#000080;fill-opacity:1;stroke:#000080;stroke-width:2.64583325;stroke-miterlimit:5;stroke-dasharray:none;stroke-opacity:1"
         d="m -42.164578,162.69591 c -0.318864,-0.50808 0.0079,-1.16704 0.606396,-1.22277 0.385895,-0.0359 0.74247,0.23686 0.815998,0.62428 0.113089,0.5958 -0.458589,1.08804 -1.035439,0.89157 -0.132024,-0.045 -0.321147,-0.18821 -0.386934,-0.2931 z"
         id="path6815"
         inkscape:connector-curvature="0" />
      <path
         inkscape:connector-curvature="0"
         id="path6817"
         d="m -36.679005,167.7979 c -0.318865,-0.50808 0.0079,-1.16704 0.606396,-1.22277 0.385895,-0.0359 0.74247,0.23687 0.815998,0.62428 0.113089,0.5958 -0.458589,1.08805 -1.03544,0.89157 -0.132024,-0.045 -0.321147,-0.18821 -0.386934,-0.2931 z"
         style="opacity:1;fill:#000080;fill-opacity:1;stroke:#000080;stroke-width:2.64583325;stroke-miterlimit:5;stroke-dasharray:none;stroke-opacity:1" />
      <path
         style="opacity:1;fill:#000080;fill-opacity:1;stroke:#000080;stroke-width:2.64583325;stroke-miterlimit:5;stroke-dasharray:none;stroke-opacity:1"
         d="m -42.128252,168.15685 c -0.318871,-0.50808 0.0079,-1.16705 0.606389,-1.22277 0.385895,-0.0359 0.74247,0.23687 0.815997,0.62429 0.11309,0.59579 -0.458582,1.08803 -1.035432,0.89155 -0.132023,-0.045 -0.321147,-0.18821 -0.386933,-0.29309 z"
         id="path6819"
         inkscape:connector-curvature="0" />
      <path
         inkscape:connector-curvature="0"
         id="path6821"
         d="m -47.577505,168.5158 c -0.318864,-0.50808 0.0079,-1.16705 0.606396,-1.22277 0.385888,-0.0359 0.742469,0.23686 0.815997,0.62428 0.113083,0.5958 -0.458589,1.08804 -1.035438,0.89156 -0.132024,-0.0449 -0.321148,-0.1882 -0.386934,-0.29309 z"
         style="opacity:1;fill:#000080;fill-opacity:1;stroke:#000080;stroke-width:2.64583325;stroke-miterlimit:5;stroke-dasharray:none;stroke-opacity:1" />
      <path
         style="opacity:1;fill:#000080;fill-opacity:1;stroke:#000080;stroke-width:2.64583325;stroke-miterlimit:5;stroke-dasharray:none;stroke-opacity:1"
         d="m -42.091932,173.61779 c -0.318865,-0.50808 0.0079,-1.16705 0.606396,-1.22277 0.385888,-0.0359 0.74247,0.23686 0.815998,0.62428 0.113082,0.5958 -0.458589,1.08804 -1.03544,0.89156 -0.132024,-0.0449 -0.321147,-0.1882 -0.386934,-0.29309 z"
         id="path6823"
         inkscape:connector-curvature="0" />
      <path
         style="opacity:1;fill:#000080;fill-opacity:1;stroke:#000080;stroke-width:0.79374999;stroke-miterlimit:5;stroke-dasharray:none;stroke-opacity:1"
         d="m -5.0477141,173.09051 c -4.150379,-1.0961 -5.6507369,-6.08629 -2.784025,-9.25968 1.848472,-2.04619 5.048997,-2.35115 7.32424,-0.69788 3.499077,2.54257 2.901997,7.84899 -1.081457,9.61121 -0.911606,0.40328 -2.602162,0.57256 -3.458758,0.34635 z"
         id="path6827"
         inkscape:connector-curvature="0" />
      <rect
         y="188.02495"
         x="17.511473"
         height="7.831161"
         width="8.960288"
         id="rect6829"
         style="opacity:1;fill:#000080;fill-opacity:1;stroke:#000080;stroke-width:2.84928226;stroke-miterlimit:5;stroke-dasharray:none;stroke-opacity:1"
         transform="matrix(-0.880355,-0.47431537,0.03682508,0.99932173,0,0)" />
      <rect
         transform="matrix(-0.880355,-0.47431537,0.03682508,0.99932173,0,0)"
         style="opacity:1;fill:#000080;fill-opacity:1;stroke:#000080;stroke-width:2.84928226;stroke-miterlimit:5;stroke-dasharray:none;stroke-opacity:1"
         id="rect6831"
         width="8.960288"
         height="7.831161"
         x="-26.029909"
         y="167.35861" />
      <path
         style="opacity:1;fill:#000080;fill-opacity:1;stroke:#000080;stroke-width:2.64583325;stroke-miterlimit:5;stroke-dasharray:none;stroke-opacity:1"
         d="m 0.20304189,178.03974 c -0.0356836,0.36172 0.20840294,0.72084 0.60875939,0.78244 0.11016172,0.017 0.31922852,-0.0274 0.42760162,-0.0909 0.4736032,-0.27742 0.4753429,-0.9573 0.00303,-1.23142 -0.30712444,-0.17825 -0.70312098,-0.0963 -0.90599735,0.18797 -0.078684,0.1102 -0.121547,0.23136 -0.13356682,0.35189 z m 0.77442977,7.12068 c -0.0356826,0.36171 0.20837364,0.72082 0.60873854,0.78243 0.1101825,0.017 0.3192209,-0.0274 0.4276225,-0.0909 0.4736014,-0.27741 0.474821,-0.95736 0.00251,-1.23148 -0.3071338,-0.17826 -0.7026647,-0.0957 -0.9055393,0.18854 -0.078684,0.1102 -0.12146625,0.23086 -0.13339232,0.35142 z m 2.96551384,-3.92657 c -0.035683,0.36172 0.2083812,0.72084 0.6087688,0.78244 0.110153,0.017 0.3192294,-0.0275 0.4276016,-0.0909 0.4736232,-0.27742 0.4753446,-0.95732 0.00303,-1.23143 -0.3071327,-0.17826 -0.7031923,-0.0958 -0.9060593,0.18848 -0.078683,0.1102 -0.1214662,0.23086 -0.1333923,0.35142 z m 2.9659813,-3.92598 c -0.035684,0.36172 0.2083821,0.72083 0.6087385,0.78243 0.1101816,0.017 0.3192286,-0.0274 0.4276225,-0.0909 0.4736023,-0.27742 0.4748521,-0.95736 0.00251,-1.23149 -0.3071071,-0.17824 -0.7025916,-0.0962 -0.905468,0.18804 -0.078684,0.1102 -0.121547,0.23136 -0.1335668,0.35189 z m 0.7739003,7.1206 c -0.035683,0.36172 0.2089116,0.7209 0.609268,0.7825 0.1101826,0.017 0.3187226,-0.0275 0.4271024,-0.091 0.473593,-0.27743 0.4753411,-0.95731 0.00303,-1.23143 -0.3071547,-0.17825 -0.7031219,-0.0963 -0.9059964,0.18797 -0.078685,0.1102 -0.1215479,0.23137 -0.1335678,0.35189 z"
         id="path6833"
         inkscape:connector-curvature="0"
         inkscape:transform-center-x="-0.47516222"
         inkscape:transform-center-y="-1.2339191" />
      <path
         style="opacity:1;fill:#000080;fill-opacity:1;stroke:#000080;stroke-width:2.64583325;stroke-miterlimit:5;stroke-dasharray:none;stroke-opacity:1"
         d="m 33.092894,164.17659 c -0.534624,-0.14309 -0.72789,-0.79451 -0.358619,-1.20875 0.238107,-0.26712 0.650378,-0.30693 0.943458,-0.0911 0.450728,0.3319 0.373817,1.02461 -0.139305,1.25465 -0.117427,0.0526 -0.335193,0.0747 -0.445534,0.0452 z"
         id="path6853"
         inkscape:connector-curvature="0" />
      <path
         inkscape:connector-curvature="0"
         id="path6855"
         d="m 40.268654,168.40992 c -0.534622,-0.14309 -0.727888,-0.79451 -0.358619,-1.20875 0.238108,-0.26712 0.650378,-0.30693 0.943459,-0.0911 0.450727,0.3319 0.373816,1.02461 -0.139306,1.25465 -0.117427,0.0526 -0.335192,0.0747 -0.445534,0.0452 z"
         style="opacity:1;fill:#000080;fill-opacity:1;stroke:#000080;stroke-width:2.64583325;stroke-miterlimit:5;stroke-dasharray:none;stroke-opacity:1" />
      <path
         inkscape:connector-curvature="0"
         id="path6857"
         d="m 32.82831,172.04874 c -0.534624,-0.14308 -0.72789,-0.7945 -0.358619,-1.20875 0.238107,-0.26711 0.650378,-0.30692 0.943458,-0.0911 0.450728,0.3319 0.373817,1.0246 -0.139305,1.25464 -0.117427,0.0526 -0.335193,0.0747 -0.445534,0.0452 z"
         style="opacity:1;fill:#000080;fill-opacity:1;stroke:#000080;stroke-width:2.64583325;stroke-miterlimit:5;stroke-dasharray:none;stroke-opacity:1" />
      <path
         style="opacity:1;fill:#000080;fill-opacity:1;stroke:#000080;stroke-width:2.64583325;stroke-miterlimit:5;stroke-dasharray:none;stroke-opacity:1"
         d="m 25.981155,168.60916 c -0.534623,-0.14308 -0.727889,-0.7945 -0.358619,-1.20875 0.238108,-0.26711 0.650378,-0.30692 0.943459,-0.0911 0.450727,0.3319 0.373816,1.0246 -0.139306,1.25464 -0.117427,0.0526 -0.335192,0.0747 -0.445534,0.0452 z"
         id="path6859"
         inkscape:connector-curvature="0" />
    </g>
    <path
       inkscape:connector-curvature="0"
       id="path6732"
       d="m -25.364637,295.617 a 4.7368081,6.9425592 24.383284 0 0 -5.984573,-3.01649 4.7368081,6.9425592 24.383284 0 0 -4.223817,8.86094 4.7368081,6.9425592 24.383284 0 0 5.984729,3.01656 4.7368081,6.9425592 24.383284 0 0 4.223661,-8.86101 z m -0.332788,0.19064 a 4.4279094,6.4898178 24.383282 0 1 -3.948298,8.28314 4.4279094,6.4898178 24.383282 0 1 -5.594382,-2.81981 4.4279094,6.4898178 24.383282 0 1 3.948296,-8.28314 4.4279094,6.4898178 24.383282 0 1 5.594384,2.81981 z"
       style="opacity:1;fill:#000080;fill-opacity:1;stroke:#000080;stroke-width:0.79374993;stroke-miterlimit:5;stroke-dasharray:none;stroke-opacity:1" />
    <path
       inkscape:connector-curvature="0"
       style="opacity:0.52300002;fill:none;fill-opacity:1;stroke:#000080;stroke-width:0.79374993;stroke-miterlimit:5;stroke-dasharray:none;stroke-opacity:1"
       d="m -38.873213,276.27248 -15.761518,9.02965 15.761518,9.03 15.761519,-9.03 z"
       id="path6736" />
    <path
       inkscape:connector-curvature="0"
       style="opacity:0.52300002;fill:none;fill-opacity:1;stroke:#000080;stroke-width:0.79374993;stroke-miterlimit:5;stroke-dasharray:none;stroke-opacity:1"
       d="m -23.111694,285.30213 -15.761519,9.03 v 18.05966 l 15.761519,-9.02966 z"
       id="path6738" />
    <path
       id="path6740"
       d="m -54.89933,285.30213 15.761521,9.03 v 18.05966 l -15.761521,-9.02966 z"
       style="opacity:0.52300002;fill:none;fill-opacity:1;stroke:#000080;stroke-width:0.79374993;stroke-miterlimit:5;stroke-dasharray:none;stroke-opacity:1"
       inkscape:connector-curvature="0" />
    <path
       inkscape:connector-curvature="0"
       id="path6825"
       d="m -100.5063,295.35242 a 4.7368081,6.9425592 24.383284 0 0 -5.98458,-3.01649 4.7368081,6.9425592 24.383284 0 0 -4.22381,8.86094 4.7368081,6.9425592 24.383284 0 0 5.98473,3.01656 4.7368081,6.9425592 24.383284 0 0 4.22366,-8.86101 z m -0.33279,0.19064 a 4.4279094,6.4898178 24.383282 0 1 -3.9483,8.28314 4.4279094,6.4898178 24.383282 0 1 -5.59438,-2.81981 4.4279094,6.4898178 24.383282 0 1 3.94829,-8.28314 4.4279094,6.4898178 24.383282 0 1 5.59439,2.81981 z"
       style="opacity:1;fill:#000080;fill-opacity:1;stroke:#000080;stroke-width:0.79374993;stroke-miterlimit:5;stroke-dasharray:none;stroke-opacity:1" />
  </g>
</svg>
