<?xml version="1.0" encoding="UTF-8" standalone="no"?>
<!-- Created with Inkscape (http://www.inkscape.org/) -->

<svg
   xmlns:dc="http://purl.org/dc/elements/1.1/"
   xmlns:cc="http://creativecommons.org/ns#"
   xmlns:rdf="http://www.w3.org/1999/02/22-rdf-syntax-ns#"
   xmlns:svg="http://www.w3.org/2000/svg"
   xmlns="http://www.w3.org/2000/svg"
   xmlns:sodipodi="http://sodipodi.sourceforge.net/DTD/sodipodi-0.dtd"
   xmlns:inkscape="http://www.inkscape.org/namespaces/inkscape"
   width="210mm"
   height="297mm"
   viewBox="0 0 210 297"
   version="1.1"
   id="svg8"
   inkscape:export-filename="/home/doug-wray/Documents/Quiz/Web/img/15/question15.png"
   inkscape:export-xdpi="96.5"
   inkscape:export-ydpi="96.5"
   inkscape:version="0.92.4 (f8dce91, 2019-08-02)"
   sodipodi:docname="question15Answer.svg">
  <defs
     id="defs2">
    <inkscape:perspective
       sodipodi:type="inkscape:persp3d"
       inkscape:vp_x="-1.0971948 : 170.12301 : 1"
       inkscape:vp_y="0 : 772.58967 : 0"
       inkscape:vp_z="163.0802 : 170.12301 : 1"
       inkscape:persp3d-origin="80.991505 : 131.87983 : 1"
       id="perspective6263" />
  </defs>
  <sodipodi:namedview
     id="base"
     pagecolor="#ffffff"
     bordercolor="#666666"
     borderopacity="1.0"
     inkscape:pageopacity="0.0"
     inkscape:pageshadow="2"
     inkscape:zoom="1"
     inkscape:cx="-118.20079"
     inkscape:cy="-126.96916"
     inkscape:document-units="px"
     inkscape:current-layer="layer1"
     showgrid="false"
     showborder="false"
     showguides="true"
     inkscape:guide-bbox="true"
     inkscape:snap-grids="false"
     inkscape:window-width="1920"
     inkscape:window-height="1052"
     inkscape:window-x="1366"
     inkscape:window-y="0"
     inkscape:window-maximized="1"
     inkscape:snap-to-guides="false"
     inkscape:snap-global="false"
     inkscape:snap-nodes="true"
     inkscape:snap-others="false">
    <sodipodi:guide
       position="-235.47917,-119.32708"
       orientation="1,0"
       id="guide1146"
       inkscape:locked="false" />
    <sodipodi:guide
       position="-222.24999,-91.016669"
       orientation="1,0"
       id="guide1150"
       inkscape:locked="false" />
    <sodipodi:guide
       position="-80.822303,-26.566592"
       orientation="0,1"
       id="guide6341"
       inkscape:locked="false" />
  </sodipodi:namedview>
  <metadata
     id="metadata5">
    <rdf:RDF>
      <cc:Work
         rdf:about="">
        <dc:format>image/svg+xml</dc:format>
        <dc:type
           rdf:resource="http://purl.org/dc/dcmitype/StillImage" />
        <dc:title></dc:title>
      </cc:Work>
    </rdf:RDF>
  </metadata>
  <g
     inkscape:label="Layer 1"
     inkscape:groupmode="layer"
     id="layer1">
    <flowRoot
       xml:space="preserve"
       id="flowRoot1228"
       style="font-style:normal;font-weight:normal;font-size:85.33333463px;line-height:1.25;font-family:sans-serif;letter-spacing:0px;word-spacing:0px;fill:#000080;fill-opacity:1;stroke:none;-inkscape-font-specification:'sans-serif, Normal';font-stretch:normal;font-variant:normal;text-anchor:middle;text-align:center;writing-mode:lr;font-variant-ligatures:normal;font-variant-caps:normal;font-variant-numeric:normal;font-feature-settings:normal;"
       transform="scale(0.26458333)"><flowRegion
         id="flowRegion1230"
         style="fill:#000080;fill-opacity:1;-inkscape-font-specification:'sans-serif, Normal';font-family:sans-serif;font-weight:normal;font-style:normal;font-stretch:normal;font-variant:normal;font-size:85.33333463px;text-anchor:middle;text-align:center;writing-mode:lr;font-variant-ligatures:normal;font-variant-caps:normal;font-variant-numeric:normal;font-feature-settings:normal;"><rect
           id="rect1232"
           width="98.994949"
           height="91.923882"
           x="408.70773"
           y="986.75519"
           style="fill:#000080;fill-opacity:1;-inkscape-font-specification:'sans-serif, Normal';font-family:sans-serif;font-weight:normal;font-style:normal;font-stretch:normal;font-variant:normal;font-size:85.33333463px;text-anchor:middle;text-align:center;writing-mode:lr;font-variant-ligatures:normal;font-variant-caps:normal;font-variant-numeric:normal;font-feature-settings:normal;" /></flowRegion><flowPara
         id="flowPara1234">?</flowPara></flowRoot>    <path
       inkscape:connector-curvature="0"
       id="path6232"
       d="m -147.36267,275.47274 a 5.6224099,6.5103895 84.79827 0 0 -9.13341,1.14677 5.6224099,6.5103895 84.79827 0 0 1.08228,7.8794 5.6224099,6.5103895 84.79827 0 0 9.13364,-1.1468 5.6224099,6.5103895 84.79827 0 0 -1.08251,-7.87937 z m -0.26246,0.29425 a 5.2557587,6.085831 84.79827 0 1 1.01182,7.36556 5.2557587,6.085831 84.79827 0 1 -8.53793,1.072 5.2557587,6.085831 84.79827 0 1 -1.01181,-7.36556 5.2557587,6.085831 84.79827 0 1 8.53792,-1.072 z"
       style="opacity:1;fill:#000080;fill-opacity:1;stroke:#000080;stroke-width:0.79374993;stroke-miterlimit:5;stroke-dasharray:none;stroke-opacity:1" />
    <path
       sodipodi:type="star"
       style="opacity:1;fill:#000080;fill-opacity:1;stroke:#000080;stroke-width:1.26146781;stroke-miterlimit:5;stroke-dasharray:none;stroke-opacity:1"
       id="path6238"
       sodipodi:sides="3"
       sodipodi:cx="53.478882"
       sodipodi:cy="281.28455"
       sodipodi:r1="11.38016"
       sodipodi:r2="5.6900797"
       sodipodi:arg1="0.52359878"
       sodipodi:arg2="1.5707963"
       inkscape:flatsided="true"
       inkscape:rounded="0"
       inkscape:randomized="0"
       d="m 63.33439,286.97463 -19.711016,0 9.855508,-17.07024 z"
       inkscape:transform-center-x="0.43990082"
       inkscape:transform-center-y="0.0018845005"
       transform="matrix(0.60738947,0.350941,-0.07731062,0.60718137,-170.46047,105.77171)" />
    <path
       inkscape:transform-center-y="-0.10607792"
       d="m 97.730218,286.97463 -19.711016,0 9.855508,-17.07024 z"
       inkscape:randomized="0"
       inkscape:rounded="0"
       inkscape:flatsided="true"
       sodipodi:arg2="1.5707963"
       sodipodi:arg1="0.52359878"
       sodipodi:r2="5.6900797"
       sodipodi:r1="11.38016"
       sodipodi:cy="281.28455"
       sodipodi:cx="87.87471"
       sodipodi:sides="3"
       id="path6240"
       style="opacity:1;fill:#000080;fill-opacity:1;stroke:#000080;stroke-width:1.23813176;stroke-miterlimit:5;stroke-dasharray:none;stroke-opacity:1"
       sodipodi:type="star"
       transform="matrix(0.57502099,-0.34547897,0.13161394,0.63566804,-231.08663,147.01845)"
       inkscape:transform-center-x="-0.7488951" />
    <path
       style="opacity:0.52300002;fill:none;fill-opacity:1;stroke:#000080;stroke-width:0.79374993;stroke-miterlimit:5;stroke-dasharray:none;stroke-opacity:1"
       d="m -151.41577,270.98081 -15.76153,9.02965 15.76153,9.03 15.76153,-9.03 z"
       id="path6350"
       inkscape:connector-curvature="0" />
    <path
       style="opacity:0.52300002;fill:none;fill-opacity:1;stroke:#000080;stroke-width:0.79374993;stroke-miterlimit:5;stroke-dasharray:none;stroke-opacity:1"
       d="m -135.65424,280.01046 -15.76153,9.03 v 18.05966 l 15.76153,-9.02966 z"
       id="path6352"
       inkscape:connector-curvature="0" />
    <path
       id="path6360"
       d="m -167.4419,280.01046 15.76153,9.03 v 18.05966 l -15.76153,-9.02966 z"
       style="opacity:0.52300002;fill:none;fill-opacity:1;stroke:#000080;stroke-width:0.79374993;stroke-miterlimit:5;stroke-dasharray:none;stroke-opacity:1"
       inkscape:connector-curvature="0" />
    <path
       style="opacity:1;fill:#000080;fill-opacity:1;stroke:#000080;stroke-width:0.79374993;stroke-miterlimit:5;stroke-dasharray:none;stroke-opacity:1"
       d="m -115.99582,293.7823 a 6.8126116,5.3729874 53.922491 0 0 -7.10081,-6.31855 6.8126116,5.3729874 53.922491 0 0 -4.41391,6.382 6.8126116,5.3729874 53.922491 0 0 7.10099,6.31871 6.8126116,5.3729874 53.922491 0 0 4.41373,-6.38216 z m -0.37537,0.002 a 6.3683447,5.0226016 53.922491 0 1 -4.12598,5.96591 6.3683447,5.0226016 53.922491 0 1 -6.63784,-5.90659 6.3683447,5.0226016 53.922491 0 1 4.12598,-5.9659 6.3683447,5.0226016 53.922491 0 1 6.63784,5.90658 z"
       id="path6362"
       inkscape:connector-curvature="0" />
    <path
       inkscape:transform-center-x="-1.1446943"
       transform="matrix(0.76643962,-0.19307522,0.20117585,0.48148474,-236.95137,160.55874)"
       sodipodi:type="star"
       style="opacity:1;fill:#000080;fill-opacity:1;stroke:#000080;stroke-width:1.2428602;stroke-miterlimit:5;stroke-dasharray:none;stroke-opacity:1"
       id="path6366"
       sodipodi:sides="3"
       sodipodi:cx="87.87471"
       sodipodi:cy="281.28455"
       sodipodi:r1="11.38016"
       sodipodi:r2="5.6900797"
       sodipodi:arg1="0.52359878"
       sodipodi:arg2="1.5707963"
       inkscape:flatsided="true"
       inkscape:rounded="0"
       inkscape:randomized="0"
       d="m 97.730218,286.97463 -19.711016,0 9.855508,-17.07024 z"
       inkscape:transform-center-y="-0.41843796" />
    <path
       id="path6368"
       d="m -113.66641,270.98081 -15.76152,9.02965 15.76152,9.03 15.761523,-9.03 z"
       style="opacity:0.52300002;fill:none;fill-opacity:1;stroke:#000080;stroke-width:0.79374993;stroke-miterlimit:5;stroke-dasharray:none;stroke-opacity:1"
       inkscape:connector-curvature="0" />
    <path
       id="path6370"
       d="m -97.904887,280.01046 -15.761523,9.03 v 18.05966 l 15.761523,-9.02966 z"
       style="opacity:0.52300002;fill:none;fill-opacity:1;stroke:#000080;stroke-width:0.79374993;stroke-miterlimit:5;stroke-dasharray:none;stroke-opacity:1"
       inkscape:connector-curvature="0" />
    <path
       inkscape:connector-curvature="0"
       style="opacity:0.52300002;fill:none;fill-opacity:1;stroke:#000080;stroke-width:0.79374993;stroke-miterlimit:5;stroke-dasharray:none;stroke-opacity:1"
       d="m -129.69253,280.01046 15.76153,9.03 v 18.05966 l -15.76153,-9.02966 z"
       id="path6372" />
    <path
       inkscape:connector-curvature="0"
       id="path6374"
       d="m -99.97927,290.32533 a 4.7368081,6.9425592 24.383284 0 0 -5.98457,-3.01649 4.7368081,6.9425592 24.383284 0 0 -4.22382,8.86094 4.7368081,6.9425592 24.383284 0 0 5.98473,3.01656 4.7368081,6.9425592 24.383284 0 0 4.22366,-8.86101 z m -0.33279,0.19064 a 4.4279094,6.4898178 24.383282 0 1 -3.94829,8.28314 4.4279094,6.4898178 24.383282 0 1 -5.59439,-2.81981 4.4279094,6.4898178 24.383282 0 1 3.9483,-8.28314 4.4279094,6.4898178 24.383282 0 1 5.59438,2.81981 z"
       style="opacity:1;fill:#000080;fill-opacity:1;stroke:#000080;stroke-width:0.79374993;stroke-miterlimit:5;stroke-dasharray:none;stroke-opacity:1" />
    <path
       inkscape:transform-center-y="0.094077794"
       d="m 97.730218,286.97463 -19.711016,0 9.855508,-17.07024 z"
       inkscape:randomized="0"
       inkscape:rounded="0"
       inkscape:flatsided="true"
       sodipodi:arg2="1.5707963"
       sodipodi:arg1="0.52359878"
       sodipodi:r2="5.6900797"
       sodipodi:r1="11.38016"
       sodipodi:cy="281.28455"
       sodipodi:cx="87.87471"
       sodipodi:sides="3"
       id="path6378"
       style="opacity:1;fill:#000080;fill-opacity:1;stroke:#000080;stroke-width:1.39792502;stroke-miterlimit:5;stroke-dasharray:none;stroke-opacity:1"
       sodipodi:type="star"
       transform="matrix(-0.55312519,-0.30645782,0.03431989,-0.56386115,-46.126021,477.73245)"
       inkscape:transform-center-x="-0.19527611" />
    <path
       inkscape:connector-curvature="0"
       style="opacity:0.52300002;fill:none;fill-opacity:1;stroke:#000080;stroke-width:0.79374993;stroke-miterlimit:5;stroke-dasharray:none;stroke-opacity:1"
       d="m -76.269809,270.98081 -15.761519,9.02965 15.761519,9.03 15.761519,-9.03 z"
       id="path6380" />
    <path
       inkscape:connector-curvature="0"
       style="opacity:0.52300002;fill:none;fill-opacity:1;stroke:#000080;stroke-width:0.79374993;stroke-miterlimit:5;stroke-dasharray:none;stroke-opacity:1"
       d="m -60.50829,280.01046 -15.761519,9.03 v 18.05966 l 15.761519,-9.02966 z"
       id="path6382" />
    <path
       id="path6384"
       d="m -92.295928,280.01046 15.761523,9.03 v 18.05966 l -15.761523,-9.02966 z"
       style="opacity:0.52300002;fill:none;fill-opacity:1;stroke:#000080;stroke-width:0.79374993;stroke-miterlimit:5;stroke-dasharray:none;stroke-opacity:1"
       inkscape:connector-curvature="0" />
    <path
       id="path6392"
       d="m -38.873213,270.98081 -15.761518,9.02965 15.761518,9.03 15.761519,-9.03 z"
       style="opacity:0.52300002;fill:none;fill-opacity:1;stroke:#000080;stroke-width:0.79374993;stroke-miterlimit:5;stroke-dasharray:none;stroke-opacity:1"
       inkscape:connector-curvature="0" />
    <path
       id="path6394"
       d="m -23.111694,280.01046 -15.761519,9.03 v 18.05966 l 15.761519,-9.02966 z"
       style="opacity:0.52300002;fill:none;fill-opacity:1;stroke:#000080;stroke-width:0.79374993;stroke-miterlimit:5;stroke-dasharray:none;stroke-opacity:1"
       inkscape:connector-curvature="0" />
    <path
       inkscape:connector-curvature="0"
       style="opacity:0.52300002;fill:none;fill-opacity:1;stroke:#000080;stroke-width:0.79374993;stroke-miterlimit:5;stroke-dasharray:none;stroke-opacity:1"
       d="m -54.89933,280.01046 15.761521,9.03 v 18.05966 l -15.761521,-9.02966 z"
       id="path6396" />
    <path
       inkscape:connector-curvature="0"
       id="path6398"
       d="m -49.870257,298.30111 a 5.0503802,5.6416551 23.376059 0 0 6.945227,-2.9504 5.0503802,5.6416551 23.376059 0 0 -2.182939,-7.27745 5.0503802,5.6416551 23.376059 0 0 -6.945391,2.95047 5.0503802,5.6416551 23.376059 0 0 2.183103,7.27738 z m 0.155169,-0.33349 a 4.7210325,5.2737489 23.376067 0 1 -2.04067,-6.80284 4.7210325,5.2737489 23.376067 0 1 6.492385,-2.75804 4.7210325,5.2737489 23.376067 0 1 2.040669,6.80285 4.7210325,5.2737489 23.376067 0 1 -6.492384,2.75803 z"
       style="opacity:1;fill:#000080;fill-opacity:1;stroke:#000080;stroke-width:0.79375005;stroke-miterlimit:5;stroke-dasharray:none;stroke-opacity:1" />
    <path
       inkscape:transform-center-y="-0.41843796"
       d="m 97.730218,286.97463 -19.711016,0 9.855508,-17.07024 z"
       inkscape:randomized="0"
       inkscape:rounded="0"
       inkscape:flatsided="true"
       sodipodi:arg2="1.5707963"
       sodipodi:arg1="0.52359878"
       sodipodi:r2="5.6900797"
       sodipodi:r1="11.38016"
       sodipodi:cy="281.28455"
       sodipodi:cx="87.87471"
       sodipodi:sides="3"
       id="path6402"
       style="opacity:1;fill:#000080;fill-opacity:1;stroke:#000080;stroke-width:1.2428602;stroke-miterlimit:5;stroke-dasharray:none;stroke-opacity:1"
       sodipodi:type="star"
       transform="matrix(0.76643962,-0.19307522,0.20117585,0.48148474,-161.2762,160.55874)"
       inkscape:transform-center-x="-1.1446976" />
    <path
       inkscape:transform-center-x="-1.4744581"
       transform="matrix(-9.1447261e-4,0.67133885,-0.51983156,0.05965093,114.25507,219.52206)"
       sodipodi:type="star"
       style="opacity:1;fill:#000080;fill-opacity:1;stroke:#000080;stroke-width:1.34374058;stroke-miterlimit:5;stroke-dasharray:none;stroke-opacity:1"
       id="path6404"
       sodipodi:sides="3"
       sodipodi:cx="87.87471"
       sodipodi:cy="281.28455"
       sodipodi:r1="11.38016"
       sodipodi:r2="5.6900797"
       sodipodi:arg1="0.52359878"
       sodipodi:arg2="1.5707963"
       inkscape:flatsided="true"
       inkscape:rounded="0"
       inkscape:randomized="0"
       d="m 97.730218,286.97463 -19.711016,0 9.855508,-17.07024 z"
       inkscape:transform-center-y="0.33942177" />
    <path
       style="opacity:1;fill:#000080;fill-opacity:1;stroke:#000080;stroke-width:0.79374993;stroke-miterlimit:5;stroke-dasharray:none;stroke-opacity:1"
       d="m -71.863868,275.47274 a 5.6224099,6.5103895 84.79827 0 0 -9.133412,1.14677 5.6224099,6.5103895 84.79827 0 0 1.082282,7.8794 5.6224099,6.5103895 84.79827 0 0 9.133646,-1.1468 5.6224099,6.5103895 84.79827 0 0 -1.082516,-7.87937 z m -0.262462,0.29425 a 5.2557587,6.085831 84.79827 0 1 1.011825,7.36556 5.2557587,6.085831 84.79827 0 1 -8.537931,1.072 5.2557587,6.085831 84.79827 0 1 -1.011812,-7.36556 5.2557587,6.085831 84.79827 0 1 8.537918,-1.072 z"
       id="path6406"
       inkscape:connector-curvature="0" />
    <path
       style="opacity:1;fill:#000080;fill-opacity:1;stroke:#000080;stroke-width:0.79374993;stroke-miterlimit:5;stroke-dasharray:none;stroke-opacity:1"
       d="m -62.93547,290.32533 a 4.7368081,6.9425592 24.383284 0 0 -5.984573,-3.01649 4.7368081,6.9425592 24.383284 0 0 -4.223817,8.86094 4.7368081,6.9425592 24.383284 0 0 5.984729,3.01656 4.7368081,6.9425592 24.383284 0 0 4.223661,-8.86101 z m -0.332788,0.19064 a 4.4279094,6.4898178 24.383282 0 1 -3.948298,8.28314 4.4279094,6.4898178 24.383282 0 1 -5.594382,-2.81981 4.4279094,6.4898178 24.383282 0 1 3.948296,-8.28314 4.4279094,6.4898178 24.383282 0 1 5.594384,2.81981 z"
       id="path6408"
       inkscape:connector-curvature="0" />
    <path
       style="opacity:0.52300002;fill:none;fill-opacity:1;stroke:#000080;stroke-width:2.99999976;stroke-miterlimit:5;stroke-dasharray:none;stroke-opacity:1"
       d="M -572.2793 1024.1797 L -631.85156 1058.3066 L -572.2793 1092.4355 L -572.2793 1160.6934 L -512.70898 1126.5664 L -512.70898 1058.3066 L -572.2793 1024.1797 z M -632.85156 1058.3066 L -632.85156 1126.5664 L -573.2793 1160.6934 L -573.2793 1092.4355 L -632.85156 1058.3066 z "
       transform="scale(0.26458333)"
       id="path6410" />
    <path
       style="opacity:0.52300002;fill:none;fill-opacity:1;stroke:#000080;stroke-width:2.99999976;stroke-miterlimit:5;stroke-dasharray:none;stroke-opacity:1"
       d="M -429.60547 1024.1797 L -489.17578 1058.3066 L -429.60547 1092.4355 L -429.60547 1160.6934 L -370.03516 1126.5664 L -370.03516 1058.3066 L -429.60547 1024.1797 z M -490.17578 1058.3066 L -490.17578 1126.5664 L -430.60547 1160.6934 L -430.60547 1092.4355 L -490.17578 1058.3066 z "
       transform="scale(0.26458333)"
       id="path6417" />
    <path
       style="opacity:0.52300002;fill:none;fill-opacity:1;stroke:#000080;stroke-width:2.99999976;stroke-miterlimit:5;stroke-dasharray:none;stroke-opacity:1"
       d="M -288.26367 1024.1797 L -347.83398 1058.3066 L -288.26367 1092.4355 L -288.26367 1160.6934 L -228.69336 1126.5664 L -228.69336 1058.3066 L -288.26367 1024.1797 z M -348.83594 1058.3066 L -348.83594 1126.5664 L -289.26367 1160.6934 L -289.26367 1092.4355 L -348.83594 1058.3066 z "
       transform="scale(0.26458333)"
       id="path6424" />
    <path
       style="opacity:0.52300002;fill:none;fill-opacity:1;stroke:#000080;stroke-width:2.99999976;stroke-miterlimit:5;stroke-dasharray:none;stroke-opacity:1"
       d="M -146.92188 1024.1797 L -206.49414 1058.3066 L -146.92188 1092.4355 L -146.92188 1160.6934 L -87.351562 1126.5664 L -87.351562 1058.3066 L -146.92188 1024.1797 z M -207.49414 1058.3066 L -207.49414 1126.5664 L -147.92188 1160.6934 L -147.92188 1092.4355 L -207.49414 1058.3066 z "
       transform="scale(0.26458333)"
       id="path6431" />
  </g>
</svg>
