<?xml version="1.0" encoding="UTF-8" standalone="no"?>
<!-- Created with Inkscape (http://www.inkscape.org/) -->

<svg
   xmlns:dc="http://purl.org/dc/elements/1.1/"
   xmlns:cc="http://creativecommons.org/ns#"
   xmlns:rdf="http://www.w3.org/1999/02/22-rdf-syntax-ns#"
   xmlns:svg="http://www.w3.org/2000/svg"
   xmlns="http://www.w3.org/2000/svg"
   xmlns:sodipodi="http://sodipodi.sourceforge.net/DTD/sodipodi-0.dtd"
   xmlns:inkscape="http://www.inkscape.org/namespaces/inkscape"
   width="210mm"
   height="297mm"
   viewBox="0 0 210 297"
   version="1.1"
   id="svg8"
   inkscape:export-filename="/home/doug-wray/Documents/Quiz/Web/img/11/question11.png"
   inkscape:export-xdpi="96.5"
   inkscape:export-ydpi="96.5"
   inkscape:version="0.92.4 (f8dce91, 2019-08-02)"
   sodipodi:docname="question12.svg">
  <defs
     id="defs2" />
  <sodipodi:namedview
     id="base"
     pagecolor="#ffffff"
     bordercolor="#666666"
     borderopacity="1.0"
     inkscape:pageopacity="0.0"
     inkscape:pageshadow="2"
     inkscape:zoom="0.35355339"
     inkscape:cx="372.27565"
     inkscape:cy="303.85945"
     inkscape:document-units="px"
     inkscape:current-layer="layer1"
     showgrid="false"
     showborder="false"
     showguides="true"
     inkscape:guide-bbox="true"
     inkscape:snap-grids="false"
     inkscape:window-width="1366"
     inkscape:window-height="713"
     inkscape:window-x="0"
     inkscape:window-y="27"
     inkscape:window-maximized="1"
     inkscape:snap-to-guides="false"
     inkscape:snap-global="false">
    <sodipodi:guide
       position="-235.47917,-119.32708"
       orientation="1,0"
       id="guide1146"
       inkscape:locked="false" />
    <sodipodi:guide
       position="-222.24999,-91.016669"
       orientation="1,0"
       id="guide1150"
       inkscape:locked="false" />
    <sodipodi:guide
       position="84.189901,50.139763"
       orientation="0,1"
       id="guide2113"
       inkscape:locked="false" />
    <sodipodi:guide
       position="49.765586,112.2532"
       orientation="1,0"
       id="guide2115"
       inkscape:locked="false" />
    <sodipodi:guide
       position="96.537754,111.13067"
       orientation="1,0"
       id="guide2117"
       inkscape:locked="false" />
    <sodipodi:guide
       position="80.822305,97.286108"
       orientation="0,1"
       id="guide2119"
       inkscape:locked="false" />
  </sodipodi:namedview>
  <metadata
     id="metadata5">
    <rdf:RDF>
      <cc:Work
         rdf:about="">
        <dc:format>image/svg+xml</dc:format>
        <dc:type
           rdf:resource="http://purl.org/dc/dcmitype/StillImage" />
        <dc:title></dc:title>
      </cc:Work>
    </rdf:RDF>
  </metadata>
  <g
     inkscape:label="Layer 1"
     inkscape:groupmode="layer"
     id="layer1">
    <flowRoot
       xml:space="preserve"
       id="flowRoot1228"
       style="font-style:normal;font-weight:normal;font-size:85.33333463px;line-height:1.25;font-family:sans-serif;letter-spacing:0px;word-spacing:0px;fill:#000080;fill-opacity:1;stroke:none;-inkscape-font-specification:'sans-serif, Normal';font-stretch:normal;font-variant:normal;text-anchor:middle;text-align:center;writing-mode:lr;font-variant-ligatures:normal;font-variant-caps:normal;font-variant-numeric:normal;font-feature-settings:normal;"
       transform="scale(0.26458333)"><flowRegion
         id="flowRegion1230"
         style="fill:#000080;fill-opacity:1;-inkscape-font-specification:'sans-serif, Normal';font-family:sans-serif;font-weight:normal;font-style:normal;font-stretch:normal;font-variant:normal;font-size:85.33333463px;text-anchor:middle;text-align:center;writing-mode:lr;font-variant-ligatures:normal;font-variant-caps:normal;font-variant-numeric:normal;font-feature-settings:normal;"><rect
           id="rect1232"
           width="98.994949"
           height="91.923882"
           x="408.70773"
           y="986.75519"
           style="fill:#000080;fill-opacity:1;-inkscape-font-specification:'sans-serif, Normal';font-family:sans-serif;font-weight:normal;font-style:normal;font-stretch:normal;font-variant:normal;font-size:85.33333463px;text-anchor:middle;text-align:center;writing-mode:lr;font-variant-ligatures:normal;font-variant-caps:normal;font-variant-numeric:normal;font-feature-settings:normal;" /></flowRegion><flowPara
         id="flowPara1234">?</flowPara></flowRoot>    <path
       style="opacity:0.98999999;fill:#000080;fill-opacity:1;stroke:#000080;stroke-width:1.05833328;stroke-miterlimit:5.5;stroke-dasharray:none;stroke-opacity:1"
       d="M 0.52916663,152.00834 V 296.47083 H 144.99166 V 152.00834 Z m 2.64583327,2.64584 H 142.34583 V 293.825 H 3.1749999 Z"
       id="rect2106"
       inkscape:connector-curvature="0" />
    <rect
       style="opacity:1;fill:#000080;fill-opacity:1;stroke:#000080;stroke-width:1.05833328;stroke-miterlimit:5.5;stroke-dasharray:none;stroke-opacity:1"
       id="rect2121"
       width="2.6192415"
       height="144.05827"
       x="49.391407"
       y="152.94173" />
    <rect
       style="opacity:1;fill:#000080;fill-opacity:1;stroke:#000080;stroke-width:1.05833328;stroke-miterlimit:5.5;stroke-dasharray:none;stroke-opacity:1"
       id="rect2125"
       width="2.6192415"
       height="144.05827"
       x="95.428894"
       y="152.41257" />
    <rect
       style="opacity:1;fill:#000080;fill-opacity:1;stroke:#000080;stroke-width:0.79374999;stroke-miterlimit:5.5;stroke-dasharray:none;stroke-opacity:1"
       id="rect2127"
       width="144.05827"
       height="2.6192415"
       x="0.74835467"
       y="199.71388" />
    <rect
       y="245.75145"
       x="0.74835467"
       height="2.6192415"
       width="144.05827"
       id="rect2129"
       style="opacity:1;fill:#000080;fill-opacity:1;stroke:#000080;stroke-width:0.79374999;stroke-miterlimit:5.5;stroke-dasharray:none;stroke-opacity:1" />
    <flowRoot
       xml:space="preserve"
       id="flowRoot2166"
       style="font-style:normal;font-weight:normal;font-size:40px;line-height:1;font-family:sans-serif;letter-spacing:0px;word-spacing:0px;fill:#000000;fill-opacity:1;stroke:none;stroke-width:0.47775209"
       transform="matrix(0.57363679,0,0,0.53466623,-121.27779,-266.90746)"><flowRegion
         id="flowRegion2168"
         style="line-height:1;stroke-width:0.22824706"><rect
           id="rect2170"
           width="111.72287"
           height="107.48023"
           x="401.63666"
           y="976.85571"
           style="line-height:1;stroke-width:0.47775209" /></flowRegion><flowPara
         id="flowPara2172"
         style="font-size:74.66666412px;line-height:1;stroke-width:0.22824706">?</flowPara></flowRoot>    <path
       style="opacity:1;fill:#000080;fill-opacity:1;stroke:#000080;stroke-width:0.79374999;stroke-miterlimit:5;stroke-dasharray:none;stroke-opacity:1"
       d="M 25.834469,163.68574 12.71319,189.92818 h 26.242564 z m 0.04013,1.03759 12.380968,24.76156 H 13.493752 Z"
       id="path2199"
       inkscape:connector-curvature="0" />
    <path
       inkscape:connector-curvature="0"
       id="path2210"
       d="m 121.08442,191.01512 14.6308,-29.26108 -29.26132,-1.5e-4 z m -0.0448,-1.15694 -13.80505,-27.61 27.61025,1.3e-4 z"
       style="opacity:1;fill:#000080;fill-opacity:1;stroke:#000080;stroke-width:0.79374999;stroke-miterlimit:5;stroke-dasharray:none;stroke-opacity:1" />
    <path
       style="opacity:1;fill:#000080;fill-opacity:1;stroke:#000080;stroke-width:0.79374999;stroke-miterlimit:5;stroke-dasharray:none;stroke-opacity:1"
       d="m 73.988594,189.52875 13.121421,-26.2424 -26.242592,-1.3e-4 z m -0.04014,-1.03759 -12.380863,-24.76165 24.761854,1.2e-4 z"
       id="path2212"
       inkscape:connector-curvature="0" />
    <path
       style="opacity:1;fill:#000080;fill-opacity:1;stroke:#000080;stroke-width:0.79374999;stroke-miterlimit:5;stroke-dasharray:none;stroke-opacity:1"
       d="m 121.08448,162.19935 -14.63065,29.26116 h 29.26132 z m 0.0448,1.15694 13.80519,27.60994 h -27.61024 z"
       id="path2214"
       inkscape:connector-curvature="0" />
    <path
       style="opacity:1;fill:#000080;fill-opacity:1;stroke:#000080;stroke-width:0.79374999;stroke-miterlimit:5;stroke-dasharray:none;stroke-opacity:1"
       d="M 20.195116,210.39628 A 13.33943,13.33943 0 0 0 6.8556898,223.73571 13.33943,13.33943 0 0 0 20.195116,237.07514 13.33943,13.33943 0 0 0 33.534552,223.73571 13.33943,13.33943 0 0 0 20.195116,210.39628 Z m 0,1.0157 A 12.323738,12.323738 0 0 1 32.518858,223.73571 12.323738,12.323738 0 0 1 20.195116,236.05944 12.323738,12.323738 0 0 1 7.8713825,223.73571 12.323738,12.323738 0 0 1 20.195116,211.41198 Z"
       id="path2216"
       inkscape:connector-curvature="0" />
    <path
       inkscape:connector-curvature="0"
       id="path2221"
       d="M 79.461787,210.39628 A 13.33943,13.33943 0 0 0 66.12236,223.73571 13.33943,13.33943 0 0 0 79.461787,237.07514 13.33943,13.33943 0 0 0 92.801223,223.73571 13.33943,13.33943 0 0 0 79.461787,210.39628 Z m 0,1.0157 a 12.323738,12.323738 0 0 1 12.323742,12.32373 12.323738,12.323738 0 0 1 -12.323742,12.32373 12.323738,12.323738 0 0 1 -12.323734,-12.32373 12.323738,12.323738 0 0 1 12.323734,-12.32373 z"
       style="opacity:1;fill:#000080;fill-opacity:1;stroke:#000080;stroke-width:0.79374999;stroke-miterlimit:5;stroke-dasharray:none;stroke-opacity:1" />
    <path
       style="opacity:1;fill:#000080;fill-opacity:1;stroke:#000080;stroke-width:0.79374999;stroke-miterlimit:5;stroke-dasharray:none;stroke-opacity:1"
       d="m 126.02849,210.39628 a 13.33943,13.33943 0 0 0 -13.33943,13.33943 13.33943,13.33943 0 0 0 13.33943,13.33943 13.33943,13.33943 0 0 0 13.33945,-13.33943 13.33943,13.33943 0 0 0 -13.33945,-13.33943 z m 0,1.0157 a 12.323738,12.323738 0 0 1 12.32375,12.32373 12.323738,12.323738 0 0 1 -12.32375,12.32373 12.323738,12.323738 0 0 1 -12.32374,-12.32373 12.323738,12.323738 0 0 1 12.32374,-12.32373 z"
       id="path2223"
       inkscape:connector-curvature="0" />
    <path
       style="opacity:1;fill:#000080;fill-opacity:1;stroke:#000080;stroke-width:0.79374999;stroke-miterlimit:5;stroke-dasharray:none;stroke-opacity:1"
       d="m 114.38678,210.39628 a 13.33943,13.33943 0 0 0 -13.33943,13.33943 13.33943,13.33943 0 0 0 13.33943,13.33943 13.33943,13.33943 0 0 0 13.33945,-13.33943 13.33943,13.33943 0 0 0 -13.33945,-13.33943 z m 0,1.0157 a 12.323738,12.323738 0 0 1 12.32375,12.32373 12.323738,12.323738 0 0 1 -12.32375,12.32373 12.323738,12.323738 0 0 1 -12.32374,-12.32373 12.323738,12.323738 0 0 1 12.32374,-12.32373 z"
       id="path2225"
       inkscape:connector-curvature="0" />
    <path
       style="opacity:1;fill:#000080;fill-opacity:1;stroke:#000080;stroke-width:0.79375005;stroke-miterlimit:5;stroke-dasharray:none;stroke-opacity:1"
       d="m 6.8261916,258.08146 v 26.19643 H 33.022609 v -26.19643 z m 0.6658359,0.66601 H 32.356605 v 24.86458 H 7.4920275 Z"
       id="rect2227"
       inkscape:connector-curvature="0" />
    <path
       inkscape:connector-curvature="0"
       id="path2232"
       d="m 66.092862,258.08146 v 26.19643 H 92.28928 v -26.19643 z m 0.665836,0.66601 h 24.864578 v 24.86458 H 66.758698 Z"
       style="opacity:1;fill:#000080;fill-opacity:1;stroke:#000080;stroke-width:0.79375005;stroke-miterlimit:5;stroke-dasharray:none;stroke-opacity:1" />
  </g>
</svg>
